<?xml version="1.0" encoding="utf-8"?>
<!-- Generator: Adobe Illustrator 18.1.1, SVG Export Plug-In . SVG Version: 6.00 Build 0)  -->
<svg version="1.1" xmlns="http://www.w3.org/2000/svg" xmlns:xlink="http://www.w3.org/1999/xlink" x="0px" y="0px"
	 viewBox="0 0 128 128" enable-background="new 0 0 128 128" xml:space="preserve">
<g id="Bootstrap">
	<g id="XMLID_1478_">
		<g id="Color_Base_6_">
			<g id="XMLID_1559_">
				<circle id="XMLID_1562_" fill-rule="evenodd" clip-rule="evenodd" fill="#5C73CC" cx="64" cy="64" r="64"/>
			</g>
		</g>
		<g id="Border_6_" opacity="0.102">
			<g id="XMLID_1609_">
				<path id="XMLID_1612_" fill-rule="evenodd" clip-rule="evenodd" d="M64,0C28.654,0,0,28.654,0,64c0,35.346,28.654,64,64,64
					s64-28.654,64-64C128,28.654,99.346,0,64,0z M64,122C31.967,122,6,96.032,6,64C6,31.967,31.967,6,64,6s58,25.968,58,58
					C122,96.032,96.033,122,64,122z"/>
			</g>
		</g>
		<g id="Corner_Hightlight_6_" opacity="0.2588">
			<g id="XMLID_1569_">
				<path id="XMLID_1577_" fill-rule="evenodd" clip-rule="evenodd" fill="#FFFFFF" d="M63.964,127.999
					c0.012,0,0.024,0.001,0.036,0.001c2.503,0,4.968-0.159,7.397-0.439c10.229-14.739,26.485-24.966,45.207-27.122
					c1.412-2.035,2.713-4.153,3.886-6.35C96.468,95.275,75.638,108.572,63.964,127.999z"/>
			</g>
		</g>
		<g id="Large_Shadow_6_" opacity="0.102">
			<g id="XMLID_1572_">
				<path id="XMLID_1576_" fill-rule="evenodd" clip-rule="evenodd" d="M117.04,28.175C70.481,30.522,30.1,56.286,7.426,93.924
					C18.168,114.189,39.466,128,64,128c35.346,0,64-28.654,64-64C128,50.727,123.958,38.398,117.04,28.175z"/>
			</g>
		</g>
		<g id="Shadow_6_">
			<g id="XMLID_1567_">
				<path id="XMLID_1568_" fill-rule="evenodd" clip-rule="evenodd" fill="#3ACA90" d="M71.397,127.561
					c18.722-2.156,34.978-12.384,45.207-27.122C97.882,102.595,81.626,112.823,71.397,127.561z"/>
			</g>
		</g>
		<g id="Highlight_6_" opacity="0.149">
			<g id="XMLID_1561_">
				<path id="XMLID_1566_" fill-rule="evenodd" clip-rule="evenodd" fill="#FFFFFF" d="M71.397,127.561
					c3.033-0.349,6.003-0.901,8.891-1.659c7.892-9.047,18.541-15.616,30.643-18.405c2.052-2.213,3.947-4.571,5.673-7.058
					C97.882,102.595,81.626,112.823,71.397,127.561z"/>
			</g>
		</g>
		<g id="Symbol_Shadow_6_" opacity="0.051">
			<g id="XMLID_1733_">
				<path id="XMLID_1736_" fill-rule="evenodd" clip-rule="evenodd" d="M70.179,60.576c1.083-0.823,1.627-2.157,1.627-4.008
					c0-1.026-0.181-1.869-0.544-2.526c-0.362-0.657-0.843-1.171-1.445-1.542c-0.603-0.369-1.294-0.625-2.077-0.77
					c-0.784-0.143-1.597-0.216-2.44-0.216h-8.848v10.294h9.573C67.709,61.807,69.096,61.399,70.179,60.576z M71.683,69.851
					c-1.245-0.963-2.891-1.447-4.938-1.447H56.451v12.082h10.112c0.926,0,1.808-0.093,2.651-0.279
					c0.843-0.186,1.587-0.491,2.229-0.926c0.642-0.431,1.151-1.016,1.533-1.756c0.382-0.74,0.573-1.686,0.573-2.834
					C73.549,72.432,72.927,70.82,71.683,69.851z M89.2,30H38.8C32.86,30,28,34.86,28,40.8v50.4c0,5.94,4.86,10.8,10.8,10.8h50.4
					c5.94,0,10.8-4.86,10.8-10.8V40.8C100,34.86,95.14,30,89.2,30z M81.736,81.011c-0.843,1.623-1.979,2.947-3.4,3.976
					c-1.426,1.028-3.052,1.786-4.88,2.28c-1.823,0.494-3.699,0.74-5.625,0.74H47V43.994h20.229c2.043,0,3.91,0.183,5.595,0.554
					c1.685,0.369,3.13,0.976,4.336,1.818c1.205,0.843,2.136,1.964,2.802,3.359c0.661,1.397,0.99,3.125,0.99,5.18
					c0,2.217-0.49,4.068-1.475,5.548c-0.985,1.477-2.435,2.691-4.365,3.637c2.65,0.78,4.625,2.147,5.933,4.099
					C82.348,70.14,83,72.493,83,75.247C83,77.467,82.579,79.388,81.736,81.011z"/>
			</g>
		</g>
		<g id="Symbol_6_">
			<g id="XMLID_1723_">
				<path id="XMLID_1729_" fill-rule="evenodd" clip-rule="evenodd" fill="#FFFFFF" d="M71.683,67.851
					c-1.245-0.963-2.891-1.447-4.938-1.447H56.451v12.082h10.112c0.926,0,1.808-0.093,2.651-0.279
					c0.843-0.186,1.587-0.492,2.229-0.926c0.642-0.431,1.151-1.016,1.533-1.756c0.382-0.74,0.573-1.685,0.573-2.834
					C73.549,70.432,72.927,68.82,71.683,67.851z M88,28H40c-6.627,0-12,5.373-12,12v48c0,6.627,5.373,12,12,12h48
					c6.627,0,12-5.373,12-12V40C100,33.373,94.627,28,88,28z M81.736,79.011c-0.843,1.623-1.979,2.947-3.4,3.976
					c-1.426,1.028-3.052,1.786-4.88,2.28c-1.823,0.494-3.699,0.74-5.625,0.74H47V41.994h20.229c2.043,0,3.91,0.183,5.595,0.554
					c1.685,0.369,3.13,0.976,4.336,1.818c1.205,0.843,2.136,1.964,2.802,3.359c0.661,1.397,0.99,3.125,0.99,5.18
					c0,2.217-0.49,4.068-1.475,5.548c-0.985,1.477-2.435,2.691-4.365,3.637c2.65,0.78,4.625,2.147,5.933,4.098
					C82.348,68.14,83,70.493,83,73.247C83,75.467,82.579,77.388,81.736,79.011z M70.179,58.576c1.083-0.823,1.627-2.157,1.627-4.008
					c0-1.026-0.181-1.869-0.544-2.526c-0.362-0.657-0.843-1.171-1.445-1.542c-0.603-0.369-1.294-0.625-2.077-0.77
					c-0.784-0.143-1.597-0.216-2.44-0.216h-8.848v10.294h9.573C67.709,59.807,69.096,59.399,70.179,58.576z"/>
			</g>
		</g>
	</g>
</g>
</svg>
