<?xml version="1.0" encoding="utf-8"?>
<!-- Generator: Adobe Illustrator 18.1.1, SVG Export Plug-In . SVG Version: 6.00 Build 0)  -->
<svg version="1.1" xmlns="http://www.w3.org/2000/svg" xmlns:xlink="http://www.w3.org/1999/xlink" x="0px" y="0px"
	 viewBox="0 0 128 128" enable-background="new 0 0 128 128" xml:space="preserve">
<g id="Browser">
	<g id="XMLID_1588_">
		<g id="Color_Base_16_">
			<g id="XMLID_1262_">
				<circle id="XMLID_1265_" fill-rule="evenodd" clip-rule="evenodd" fill="#E783DF" cx="64" cy="64" r="64"/>
			</g>
		</g>
		<g id="Border_16_" opacity="0.102">
			<g id="XMLID_1632_">
				<path id="XMLID_1633_" fill-rule="evenodd" clip-rule="evenodd" d="M64,0C28.654,0,0,28.654,0,64s28.654,64,64,64
					s64-28.654,64-64S99.346,0,64,0z M64,122C31.967,122,6,96.032,6,64S31.967,6,64,6s58,25.968,58,58S96.033,122,64,122z"/>
			</g>
		</g>
		<g id="Corner_Hightlight_16_" opacity="0.2588">
			<g id="XMLID_1220_">
				<path id="XMLID_1226_" fill-rule="evenodd" clip-rule="evenodd" fill="#FFFFFF" d="M63.964,127.999
					c0.012,0,0.024,0.001,0.036,0.001c2.503,0,4.968-0.159,7.397-0.439c10.229-14.739,26.485-24.966,45.207-27.122
					c1.412-2.035,2.713-4.152,3.886-6.35C96.468,95.275,75.638,108.572,63.964,127.999z"/>
			</g>
		</g>
		<g id="Large_Shadow_16_" opacity="0.051">
			<g id="XMLID_1152_">
				<path id="XMLID_1153_" fill-rule="evenodd" clip-rule="evenodd" d="M117.04,28.175C70.481,30.522,30.1,56.286,7.426,93.924
					C18.168,114.189,39.466,128,64,128c35.346,0,64-28.654,64-64C128,50.727,123.958,38.398,117.04,28.175z"/>
			</g>
		</g>
		<g id="Shadow_16_">
			<g id="XMLID_1065_">
				<path id="XMLID_1066_" fill-rule="evenodd" clip-rule="evenodd" fill="#5C73CC" d="M71.397,127.561
					c18.722-2.156,34.978-12.384,45.207-27.122C97.882,102.595,81.626,112.823,71.397,127.561z"/>
			</g>
		</g>
		<g id="Highlight_16_" opacity="0.149">
			<g id="XMLID_1057_">
				<path id="XMLID_1058_" fill-rule="evenodd" clip-rule="evenodd" fill="#FFFFFF" d="M71.397,127.561
					c3.033-0.349,6.003-0.901,8.891-1.659c7.892-9.047,18.541-15.617,30.643-18.405c2.052-2.213,3.947-4.571,5.673-7.058
					C97.882,102.595,81.626,112.823,71.397,127.561z"/>
			</g>
		</g>
		<g id="Symbol_Shadow_16_" opacity="0.051">
			<g id="XMLID_2175_">
				<path id="XMLID_2176_" fill-rule="evenodd" clip-rule="evenodd" d="M65,70c-9.941,0-18,8.059-18,18c0,9.941,8.059,18,18,18
					c9.941,0,18-8.059,18-18C83,78.059,74.941,70,65,70z M51.147,90h3.921c0.23,3.719,1.088,7.094,2.38,9.777
					C54.106,97.629,51.736,94.104,51.147,90z M55.068,86h-3.921c0.589-4.104,2.959-7.629,6.302-9.777
					C56.156,78.907,55.299,82.281,55.068,86z M63,101.186c-2.069-1.709-3.616-5.982-3.936-11.186H63V101.186z M63,86h-3.936
					c0.32-5.204,1.867-9.477,3.936-11.186V86z M67,101.186V90h3.936C70.616,95.204,69.069,99.477,67,101.186z M67,86V74.814
					c2.069,1.709,3.616,5.982,3.936,11.186H67z M72.551,99.777c1.293-2.683,2.15-6.058,2.38-9.777h3.921
					C78.264,94.104,75.894,97.629,72.551,99.777z M74.932,86c-0.23-3.719-1.088-7.093-2.38-9.777
					c3.343,2.148,5.713,5.673,6.302,9.777H74.932z M96,34H32c-2.209,0-4,1.791-4,4v56c0,2.209,1.791,4,4,4h13.406
					c-0.648-1.267-1.176-2.605-1.571-4H32V46h64v48h-9.835c-0.395,1.395-0.923,2.733-1.571,4H96c2.209,0,4-1.791,4-4V38
					C100,35.791,98.209,34,96,34z M34,42c-1.105,0-2-0.895-2-2c0-1.105,0.895-2,2-2c1.104,0,2,0.895,2,2C36,41.105,35.105,42,34,42z
					 M40,42c-1.105,0-2-0.895-2-2c0-1.105,0.895-2,2-2c1.105,0,2,0.895,2,2C42,41.105,41.105,42,40,42z M46,42c-1.105,0-2-0.895-2-2
					c0-1.105,0.895-2,2-2s2,0.895,2,2C48,41.105,47.105,42,46,42z M94,42H54c-1.105,0-2-0.895-2-2c0-1.105,0.895-2,2-2h40
					c1.105,0,2,0.895,2,2C96,41.105,95.105,42,94,42z"/>
			</g>
		</g>
		<g id="Symbol_16_">
			<g id="XMLID_2080_">
				<path id="XMLID_2081_" fill-rule="evenodd" clip-rule="evenodd" fill="#FFFFFF" d="M98,32H30c-1.105,0-2,0.895-2,2v60
					c0,1.105,0.895,2,2,2h15.406c-0.648-1.267-1.176-2.605-1.571-4H32V44h64v48h-9.835c-0.395,1.395-0.923,2.733-1.571,4H98
					c1.105,0,2-0.895,2-2V34C100,32.895,99.105,32,98,32z M34,40c-1.105,0-2-0.895-2-2s0.895-2,2-2c1.104,0,2,0.895,2,2
					S35.105,40,34,40z M40,40c-1.105,0-2-0.895-2-2s0.895-2,2-2c1.105,0,2,0.895,2,2S41.105,40,40,40z M46,40c-1.105,0-2-0.895-2-2
					s0.895-2,2-2s2,0.895,2,2S47.105,40,46,40z M94,40H54c-1.105,0-2-0.895-2-2s0.895-2,2-2h40c1.105,0,2,0.895,2,2S95.105,40,94,40
					z M65,68c-9.941,0-18,8.059-18,18c0,9.941,8.059,18,18,18c9.941,0,18-8.059,18-18C83,76.059,74.941,68,65,68z M51.147,88h3.921
					c0.23,3.719,1.088,7.093,2.38,9.777C54.106,95.629,51.736,92.104,51.147,88z M55.068,84h-3.921
					c0.589-4.104,2.959-7.629,6.302-9.777C56.156,76.907,55.299,80.281,55.068,84z M63,99.186
					c-2.069-1.709-3.616-5.982-3.936-11.186H63V99.186z M63,84h-3.936c0.32-5.204,1.867-9.477,3.936-11.186V84z M67,99.186V88h3.936
					C70.616,93.204,69.069,97.477,67,99.186z M67,84V72.814c2.069,1.709,3.616,5.982,3.936,11.186H67z M72.551,97.777
					c1.293-2.683,2.15-6.058,2.38-9.777h3.921C78.264,92.104,75.894,95.629,72.551,97.777z M74.932,84
					c-0.23-3.719-1.088-7.093-2.38-9.777c3.343,2.148,5.713,5.673,6.302,9.777H74.932z"/>
			</g>
		</g>
	</g>
</g>
</svg>
