<?xml version="1.0" encoding="utf-8"?>
<!-- Generator: Adobe Illustrator 18.1.1, SVG Export Plug-In . SVG Version: 6.00 Build 0)  -->
<svg version="1.1" xmlns="http://www.w3.org/2000/svg" xmlns:xlink="http://www.w3.org/1999/xlink" x="0px" y="0px"
	 viewBox="0 0 128 128" enable-background="new 0 0 128 128" xml:space="preserve">
<g id="Cloud">
	<g id="XMLID_1570_">
		<g id="Color_Base_15_">
			<g id="XMLID_1089_">
				<circle id="XMLID_1092_" fill-rule="evenodd" clip-rule="evenodd" fill="#FFCD34" cx="64" cy="64" r="64"/>
			</g>
		</g>
		<g id="Border_15_" opacity="0.102">
			<g id="XMLID_1506_">
				<path id="XMLID_2067_" fill-rule="evenodd" clip-rule="evenodd" d="M64,0C28.654,0,0,28.654,0,64s28.654,64,64,64
					c35.346,0,64-28.654,64-64S99.346,0,64,0z M64,122C31.967,122,6,96.032,6,64S31.967,6,64,6s58,25.968,58,58S96.033,122,64,122z"
					/>
			</g>
		</g>
		<g id="Corner_Hightlight_15_" opacity="0.2588">
			<g id="XMLID_1074_">
				<path id="XMLID_1130_" fill-rule="evenodd" clip-rule="evenodd" fill="#FFFFFF" d="M63.964,127.999
					c0.012,0,0.024,0.001,0.036,0.001c2.503,0,4.968-0.159,7.397-0.439c10.229-14.739,26.485-24.966,45.207-27.122
					c1.412-2.035,2.713-4.152,3.886-6.35C96.468,95.275,75.638,108.572,63.964,127.999z"/>
			</g>
		</g>
		<g id="Large_Shadow_15_" opacity="0.0314">
			<g id="XMLID_1132_">
				<path id="XMLID_1139_" fill-rule="evenodd" clip-rule="evenodd" d="M117.04,28.175C70.481,30.522,30.1,56.286,7.426,93.924
					C18.168,114.189,39.466,128,64,128c35.346,0,64-28.654,64-64C128,50.727,123.958,38.398,117.04,28.175z"/>
			</g>
		</g>
		<g id="Shadow_15_">
			<g id="XMLID_1142_">
				<path id="XMLID_1145_" fill-rule="evenodd" clip-rule="evenodd" fill="#00ACFF" d="M71.397,127.561
					c18.722-2.156,34.978-12.384,45.207-27.122C97.882,102.595,81.626,112.823,71.397,127.561z"/>
			</g>
		</g>
		<g id="Highlight_15_" opacity="0.149">
			<g id="XMLID_1140_">
				<path id="XMLID_1165_" fill-rule="evenodd" clip-rule="evenodd" fill="#FFFFFF" d="M71.397,127.561
					c3.033-0.349,6.003-0.901,8.891-1.659c7.892-9.047,18.541-15.617,30.643-18.405c2.052-2.213,3.947-4.571,5.673-7.058
					C97.882,102.595,81.626,112.823,71.397,127.561z"/>
			</g>
		</g>
		<g id="Symbol_Shadow_15_" opacity="0.051">
			<g id="XMLID_1100_">
				<path id="XMLID_1105_" fill-rule="evenodd" clip-rule="evenodd" d="M89.972,58.454C89.685,52.082,84.443,47,78,47
					c-1.084,0-2.129,0.157-3.128,0.426C72.15,39.615,64.739,34,56,34c-11.046,0-20,8.954-20,20c0,1.666,0.226,3.276,0.61,4.823
					C29.302,61.114,24,67.937,24,76c0,9.941,8.059,18,18,18h44c9.941,0,18-8.059,18-18C104,67.426,98,60.265,89.972,58.454z"/>
			</g>
		</g>
		<g id="Symbol_15_">
			<g id="XMLID_1078_">
				<path id="XMLID_1099_" fill-rule="evenodd" clip-rule="evenodd" fill="#FFFFFF" d="M89.972,56.454
					C89.685,50.082,84.443,45,78,45c-1.084,0-2.129,0.157-3.128,0.426C72.15,37.615,64.739,32,56,32c-11.046,0-20,8.954-20,20
					c0,1.666,0.226,3.276,0.61,4.823C29.302,59.114,24,65.937,24,74c0,9.941,8.059,18,18,18h44c9.941,0,18-8.059,18-18
					C104,65.426,98,58.265,89.972,56.454z"/>
			</g>
		</g>
	</g>
</g>
</svg>
