<?xml version="1.0" encoding="utf-8"?>
<!-- Generator: Adobe Illustrator 18.1.1, SVG Export Plug-In . SVG Version: 6.00 Build 0)  -->
<svg version="1.1" xmlns="http://www.w3.org/2000/svg" xmlns:xlink="http://www.w3.org/1999/xlink" x="0px" y="0px"
	 viewBox="0 0 128 128" enable-background="new 0 0 128 128" xml:space="preserve">
<g id="Coffeescript">
	<g id="XMLID_1413_">
		<g id="Color_Base_8_">
			<g id="XMLID_1509_">
				<circle id="XMLID_1510_" fill-rule="evenodd" clip-rule="evenodd" fill="#5C73CC" cx="64" cy="64" r="64"/>
			</g>
		</g>
		<g id="Border_8_" opacity="0.102">
			<g id="XMLID_1582_">
				<path id="XMLID_1583_" fill-rule="evenodd" clip-rule="evenodd" d="M64,0C28.654,0,0,28.654,0,64c0,35.346,28.654,64,64,64
					s64-28.654,64-64C128,28.654,99.346,0,64,0z M64,122C31.967,122,6,96.032,6,64C6,31.967,31.967,6,64,6s58,25.968,58,58
					C122,96.032,96.033,122,64,122z"/>
			</g>
		</g>
		<g id="Corner_Hightlight_8_" opacity="0.2588">
			<g id="XMLID_1474_">
				<path id="XMLID_1489_" fill-rule="evenodd" clip-rule="evenodd" fill="#FFFFFF" d="M63.964,127.999
					c0.012,0,0.024,0.001,0.036,0.001c2.503,0,4.968-0.159,7.397-0.439c10.229-14.739,26.485-24.966,45.207-27.122
					c1.412-2.035,2.713-4.153,3.886-6.35C96.468,95.275,75.638,108.572,63.964,127.999z"/>
			</g>
		</g>
		<g id="Large_Shadow_8_" opacity="0.102">
			<g id="XMLID_1469_">
				<path id="XMLID_1487_" fill-rule="evenodd" clip-rule="evenodd" d="M117.04,28.175C70.481,30.522,30.1,56.286,7.426,93.924
					C18.168,114.189,39.466,128,64,128c35.346,0,64-28.654,64-64C128,50.727,123.958,38.398,117.04,28.175z"/>
			</g>
		</g>
		<g id="Shadow_8_">
			<g id="XMLID_1473_">
				<path id="XMLID_1479_" fill-rule="evenodd" clip-rule="evenodd" fill="#E783DF" d="M71.397,127.561
					c18.722-2.156,34.978-12.384,45.207-27.122C97.882,102.595,81.626,112.823,71.397,127.561z"/>
			</g>
		</g>
		<g id="Highlight_8_" opacity="0.149">
			<g id="XMLID_1480_">
				<path id="XMLID_1486_" fill-rule="evenodd" clip-rule="evenodd" fill="#FFFFFF" d="M71.397,127.561
					c3.033-0.349,6.003-0.901,8.891-1.659c7.892-9.047,18.541-15.617,30.643-18.405c2.052-2.213,3.947-4.571,5.673-7.058
					C97.882,102.595,81.626,112.823,71.397,127.561z"/>
			</g>
		</g>
		<g id="Symbol_Shadow_8_" opacity="0.051">
			<g id="XMLID_1618_">
				<path id="XMLID_1619_" fill-rule="evenodd" clip-rule="evenodd" d="M56.545,45.325c6.838-0.627,8.821-5.227,16.792-5.937
					c3.925-0.335,6.434,0.46,6.717,1.882c0.283,1.338-1.74,2.216-4.087,2.425c-3.237,0.293-4.653-0.92-4.896-2.049
					c-2.428,0.293-2.873,1.422-2.711,2.132c0.324,1.464,3.237,2.843,8.295,2.383c5.705-0.544,7.607-2.801,7.121-5.185
					c-0.607-3.052-5.017-5.561-12.867-4.85c-10.075,0.92-10.075,5.728-16.914,6.355c-2.792,0.251-4.411-0.376-4.653-1.547
					c-0.202-1.171,1.214-1.673,2.832-1.84c1.538-0.125,3.358,0.084,4.208,0.585c0.647-0.335,0.85-0.669,0.769-1.045
					c-0.202-1.087-2.347-1.547-5.058-1.296c-5.139,0.46-5.098,2.885-4.896,3.889C47.765,43.945,51.689,45.743,56.545,45.325z
					 M41.938,52.099c6.272,1.673,14.324,2.509,24.035,2.509c9.913,0,17.763-0.836,24.035-2.509c6.676-1.672,9.913-3.763,9.913-5.854
					c0-1.463-1.416-2.927-4.046-3.972c0.607,0.418,1.012,1.045,1.012,1.882c0,2.091-3.035,3.763-9.104,5.227
					c-5.665,1.254-12.908,2.091-21.607,2.091c-8.497,0-15.943-0.836-21.405-2.091c-5.867-1.464-8.902-3.136-8.902-5.227
					c0-0.836,0.405-1.673,1.618-2.509c-3.642,1.463-5.665,2.718-5.665,4.599C32.024,48.336,35.261,50.426,41.938,52.099z
					 M90.21,57.325c-6.272,1.463-14.324,2.509-24.035,2.509c-9.914-0.042-17.966-1.087-24.237-2.509
					c-5.665-1.463-8.7-3.136-9.711-4.808c0.527,3.793,1.447,7.479,2.658,11.002c-1.414,0.875-2.686,2.056-3.831,3.591
					c-2.225,2.927-3.237,6.272-3.035,9.617s1.821,6.063,4.249,8.154c2.63,2.091,5.463,2.718,8.7,2.091
					c1.214-0.209,2.63-0.836,3.844-1.254c-2.63,0-4.856-0.836-7.081-2.718c-2.428-1.882-4.046-4.39-4.451-7.526
					c-0.607-2.927,0-5.645,1.618-7.944c0.335-0.423,0.688-0.798,1.053-1.151c0.881,2.206,1.867,4.343,2.953,6.378
					c2.428,3.763,4.856,7.108,7.283,10.662c1.012,2.091,1.821,4.181,2.226,6.272c1.618,2.3,3.844,3.763,6.676,4.599
					c3.439,1.254,7.081,1.882,10.723,1.673h0.405c3.642,0.209,7.486-0.418,11.127-1.673c2.63-0.836,4.856-2.3,6.474-4.599h0.202
					c0.405-2.091,1.012-4.181,2.023-6.272c2.428-3.554,4.856-6.899,7.283-10.662c3.237-6.063,5.463-12.92,6.676-20.237
					C98.708,54.398,95.673,56.071,90.21,57.325z"/>
			</g>
		</g>
		<g id="Symbol_8_">
			<g id="XMLID_1655_">
				<path id="XMLID_1656_" fill-rule="evenodd" clip-rule="evenodd" fill="#FFFFFF" d="M56.545,43.325
					c6.838-0.627,8.821-5.227,16.792-5.937c3.925-0.334,6.434,0.46,6.717,1.882c0.283,1.338-1.74,2.216-4.087,2.425
					c-3.237,0.293-4.653-0.92-4.896-2.049c-2.428,0.293-2.873,1.422-2.711,2.133c0.324,1.463,3.237,2.843,8.295,2.383
					c5.705-0.544,7.607-2.802,7.121-5.185c-0.607-3.052-5.017-5.561-12.867-4.85c-10.075,0.92-10.075,5.728-16.914,6.356
					c-2.792,0.251-4.411-0.376-4.653-1.547c-0.202-1.171,1.214-1.672,2.832-1.84c1.538-0.125,3.358,0.084,4.208,0.585
					c0.647-0.334,0.85-0.669,0.769-1.045c-0.202-1.087-2.347-1.547-5.058-1.296c-5.139,0.46-5.098,2.885-4.896,3.889
					C47.765,41.945,51.689,43.743,56.545,43.325z M41.938,50.099c6.272,1.673,14.324,2.509,24.035,2.509
					c9.913,0,17.763-0.836,24.035-2.509c6.676-1.672,9.913-3.763,9.913-5.854c0-1.463-1.416-2.927-4.046-3.972
					c0.607,0.418,1.012,1.045,1.012,1.882c0,2.091-3.035,3.763-9.104,5.227c-5.665,1.254-12.908,2.091-21.607,2.091
					c-8.497,0-15.943-0.836-21.405-2.091c-5.867-1.463-8.902-3.136-8.902-5.227c0-0.836,0.405-1.672,1.618-2.509
					c-3.642,1.463-5.665,2.718-5.665,4.599C32.024,46.336,35.261,48.426,41.938,50.099z M90.21,55.325
					c-6.272,1.463-14.324,2.509-24.035,2.509c-9.914-0.042-17.966-1.087-24.237-2.509c-5.665-1.463-8.7-3.136-9.711-4.808
					c0.527,3.793,1.447,7.479,2.658,11.002c-1.414,0.875-2.685,2.057-3.831,3.591c-2.225,2.927-3.237,6.272-3.035,9.617
					s1.821,6.063,4.249,8.154c2.63,2.091,5.463,2.718,8.7,2.091c1.214-0.209,2.63-0.836,3.844-1.254
					c-2.63,0-4.856-0.836-7.081-2.718c-2.428-1.882-4.046-4.39-4.451-7.526c-0.607-2.927,0-5.645,1.618-7.944
					c0.335-0.422,0.688-0.798,1.053-1.151c0.881,2.206,1.867,4.343,2.953,6.378c2.428,3.763,4.856,7.108,7.283,10.662
					c1.012,2.091,1.821,4.181,2.226,6.272c1.618,2.3,3.844,3.763,6.676,4.599c3.439,1.254,7.081,1.882,10.723,1.672h0.405
					c3.642,0.209,7.486-0.418,11.127-1.672c2.63-0.836,4.856-2.3,6.474-4.599h0.202c0.405-2.091,1.012-4.181,2.023-6.272
					c2.428-3.554,4.856-6.899,7.283-10.662c3.237-6.063,5.463-12.92,6.676-20.237C98.708,52.398,95.673,54.071,90.21,55.325z"/>
			</g>
		</g>
	</g>
</g>
</svg>
