<?xml version="1.0" encoding="utf-8"?>
<!-- Generator: Adobe Illustrator 18.1.1, SVG Export Plug-In . SVG Version: 6.00 Build 0)  -->
<svg version="1.1" xmlns="http://www.w3.org/2000/svg" xmlns:xlink="http://www.w3.org/1999/xlink" x="0px" y="0px"
	 viewBox="0 0 128 128" enable-background="new 0 0 128 128" xml:space="preserve">
<g id="Desktop">
	<g id="XMLID_1595_">
		<g id="Color_Base_18_">
			<g id="XMLID_924_">
				<circle id="XMLID_925_" fill-rule="evenodd" clip-rule="evenodd" fill="#F14330" cx="64" cy="64" r="64"/>
			</g>
		</g>
		<g id="Border_18_" opacity="0.102">
			<g id="XMLID_1009_">
				<path id="XMLID_1012_" fill-rule="evenodd" clip-rule="evenodd" d="M64,0C28.654,0,0,28.654,0,64c0,35.346,28.654,64,64,64
					c35.346,0,64-28.654,64-64C128,28.654,99.346,0,64,0z M64,122C31.967,122,6,96.032,6,64C6,31.967,31.967,6,64,6s58,25.968,58,58
					C122,96.032,96.033,122,64,122z"/>
			</g>
		</g>
		<g id="Corner_Hightlight_18_" opacity="0.2588">
			<g id="XMLID_916_">
				<path id="XMLID_919_" fill-rule="evenodd" clip-rule="evenodd" fill="#FFFFFF" d="M63.964,127.999
					c0.012,0,0.024,0.001,0.036,0.001c2.503,0,4.968-0.159,7.397-0.439c10.229-14.739,26.485-24.966,45.207-27.122
					c1.412-2.035,2.713-4.153,3.886-6.35C96.468,95.275,75.638,108.572,63.964,127.999z"/>
			</g>
		</g>
		<g id="Large_Shadow_18_" opacity="0.051">
			<g id="XMLID_917_">
				<path id="XMLID_918_" fill-rule="evenodd" clip-rule="evenodd" d="M117.04,28.175C70.481,30.522,30.1,56.286,7.426,93.924
					C18.168,114.189,39.466,128,64,128c35.346,0,64-28.654,64-64C128,50.727,123.958,38.398,117.04,28.175z"/>
			</g>
		</g>
		<g id="Shadow_18_">
			<g id="XMLID_920_">
				<path id="XMLID_921_" fill-rule="evenodd" clip-rule="evenodd" fill="#FF8D1B" d="M71.397,127.561
					c18.722-2.156,34.978-12.384,45.207-27.122C97.882,102.595,81.626,112.823,71.397,127.561z"/>
			</g>
		</g>
		<g id="Highlight_18_" opacity="0.149">
			<g id="XMLID_922_">
				<path id="XMLID_923_" fill-rule="evenodd" clip-rule="evenodd" fill="#FFFFFF" d="M71.397,127.561
					c3.033-0.349,6.003-0.901,8.891-1.659c7.892-9.047,18.541-15.617,30.643-18.405c2.052-2.213,3.947-4.571,5.673-7.058
					C97.882,102.595,81.626,112.823,71.397,127.561z"/>
			</g>
		</g>
		<g id="Symbol_Shadow_18_" opacity="0.051">
			<g id="XMLID_1670_">
				<path id="XMLID_1671_" fill-rule="evenodd" clip-rule="evenodd" d="M71.516,90H56.441c-0.452,1.901-1.246,4.718-2.311,6.453
					C53.712,97.133,54.173,98,54.98,98h17.998c0.807,0,1.267-0.867,0.85-1.547C72.762,94.718,71.968,91.901,71.516,90z M98,36H30
					c-1.105,0-2,0.895-2,2v48c0,1.105,0.895,2,2,2h25h1.869h14.219H73h25c1.105,0,2-0.895,2-2V38C100,36.895,99.105,36,98,36z
					 M64,85c-1.105,0-2-0.895-2-2s0.895-2,2-2s2,0.895,2,2S65.105,85,64,85z M96,78H32V40h64V78z"/>
			</g>
		</g>
		<g id="Symbol_18_">
			<g id="XMLID_1834_">
				<path id="XMLID_1836_" fill-rule="evenodd" clip-rule="evenodd" fill="#FFFFFF" d="M98,34H30c-1.105,0-2,0.895-2,2v48
					c0,1.105,0.895,2,2,2h25h1.869h14.219H73h25c1.105,0,2-0.895,2-2V36C100,34.895,99.105,34,98,34z M64,83c-1.105,0-2-0.895-2-2
					s0.895-2,2-2s2,0.895,2,2S65.105,83,64,83z M96,76H32V38h64V76z M71.516,88H56.441c-0.452,1.901-1.246,4.718-2.311,6.453
					C53.712,95.133,54.173,96,54.98,96h17.998c0.807,0,1.267-0.867,0.85-1.547C72.762,92.718,71.968,89.901,71.516,88z"/>
			</g>
		</g>
	</g>
</g>
</svg>
