<?xml version="1.0" encoding="utf-8"?>
<!-- Generator: Adobe Illustrator 18.1.1, SVG Export Plug-In . SVG Version: 6.00 Build 0)  -->
<svg version="1.1" xmlns="http://www.w3.org/2000/svg" xmlns:xlink="http://www.w3.org/1999/xlink" x="0px" y="0px"
	 viewBox="0 0 128 128" enable-background="new 0 0 128 128" xml:space="preserve">
<g id="Dropbox">
	<g id="XMLID_1093_">
		<g id="Color_Base_13_">
			<g id="XMLID_1193_">
				<circle id="XMLID_1194_" fill-rule="evenodd" clip-rule="evenodd" fill="#00ACFF" cx="64" cy="64" r="64"/>
			</g>
		</g>
		<g id="Border_13_" opacity="0.102">
			<g id="XMLID_1266_">
				<path id="XMLID_1267_" fill-rule="evenodd" clip-rule="evenodd" d="M64,0C28.654,0,0,28.654,0,64s28.654,64,64,64
					s64-28.654,64-64S99.346,0,64,0z M64,122C31.967,122,6,96.032,6,64C6,31.967,31.967,6,64,6s58,25.967,58,58
					C122,96.032,96.033,122,64,122z"/>
			</g>
		</g>
		<g id="Corner_Hightlight_13_" opacity="0.2588">
			<g id="XMLID_1164_">
				<path id="XMLID_1166_" fill-rule="evenodd" clip-rule="evenodd" fill="#FFFFFF" d="M63.964,127.999
					c0.012,0,0.024,0.001,0.036,0.001c2.503,0,4.968-0.159,7.397-0.439c10.229-14.739,26.485-24.967,45.207-27.122
					c1.412-2.035,2.713-4.153,3.886-6.35C96.468,95.275,75.638,108.572,63.964,127.999z"/>
			</g>
		</g>
		<g id="Large_Shadow_13_" opacity="0.051">
			<g id="XMLID_1143_">
				<path id="XMLID_1149_" fill-rule="evenodd" clip-rule="evenodd" d="M117.04,28.175C70.481,30.522,30.1,56.286,7.426,93.924
					C18.168,114.189,39.466,128,64,128c35.346,0,64-28.654,64-64C128,50.727,123.958,38.398,117.04,28.175z"/>
			</g>
		</g>
		<g id="Shadow_13_">
			<g id="XMLID_1150_">
				<path id="XMLID_1154_" fill-rule="evenodd" clip-rule="evenodd" fill="#E783DF" d="M71.397,127.561
					c18.722-2.156,34.978-12.384,45.207-27.122C97.882,102.595,81.626,112.823,71.397,127.561z"/>
			</g>
		</g>
		<g id="Highlight_13_" opacity="0.149">
			<g id="XMLID_1167_">
				<path id="XMLID_1168_" fill-rule="evenodd" clip-rule="evenodd" fill="#FFFFFF" d="M71.397,127.561
					c3.033-0.349,6.003-0.901,8.891-1.659c7.892-9.047,18.541-15.617,30.643-18.405c2.052-2.213,3.947-4.572,5.673-7.058
					C97.882,102.595,81.626,112.823,71.397,127.561z"/>
			</g>
		</g>
		<g id="Symbol_Shadow_13_" opacity="0.051">
			<g id="XMLID_1382_">
				<path id="XMLID_1383_" fill-rule="evenodd" clip-rule="evenodd" d="M99.988,48.634c0-0.047,0-0.095,0-0.142
					c-5.807-3.758-11.616-7.513-17.42-11.276c-1.119-0.725-2.217-1.482-3.324-2.225c-0.144,0-0.288,0-0.432,0
					c-2.053,1.706-4.101,3.417-6.159,5.116c-2.703,2.231-5.418,4.447-8.117,6.682c-0.364,0.302-0.629,0.39-1.044,0.048
					c-4.708-3.883-9.432-7.748-14.15-11.62c-0.073-0.06-0.13-0.138-0.195-0.208c-0.144,0-0.288,0-0.432,0
					c-0.126,0.108-0.241,0.232-0.379,0.322c-6.782,4.403-13.565,8.803-20.348,13.204c0,0.047,0,0.095,0,0.142
					c4.86,3.844,9.721,7.688,14.678,11.609c-4.881,3.875-9.657,7.666-14.527,11.532c0.316,0.236,0.526,0.414,0.755,0.562
					c6.592,4.244,13.191,8.478,19.773,12.737c0.53,0.343,0.863,0.272,1.314-0.106c4.426-3.71,8.877-7.391,13.296-11.109
					c0.555-0.467,0.898-0.468,1.453-0.001c4.386,3.684,8.808,7.324,13.192,11.01c0.587,0.493,0.984,0.483,1.613,0.074
					c6.493-4.221,13.008-8.408,19.516-12.606c0.236-0.152,0.461-0.32,0.837-0.582c-4.877-3.863-9.668-7.659-14.564-11.537
					C90.277,56.334,95.132,52.484,99.988,48.634z M81.191,62.674c-5.467,3.345-10.938,6.683-16.395,10.044
					c-0.561,0.346-0.993,0.367-1.568,0.014c-6.583-4.042-13.18-8.06-19.773-12.085c-0.141-0.086-0.273-0.185-0.508-0.345
					c0.225-0.169,0.391-0.317,0.579-0.432c6.549-4.006,13.103-8.003,19.642-12.025c0.588-0.362,1.022-0.381,1.621-0.013
					c6.563,4.029,13.143,8.029,19.717,12.039c0.159,0.097,0.303,0.218,0.573,0.415C83.71,61.128,82.452,61.903,81.191,62.674z
					 M85.192,84.771c-0.003-0.243-0.061-0.486-0.109-0.842c-0.34,0.179-0.573,0.285-0.789,0.419
					c-1.587,0.98-3.191,1.935-4.744,2.965c-0.637,0.423-1.059,0.367-1.631-0.111c-4.415-3.688-8.863-7.338-13.28-11.024
					c-0.487-0.406-0.782-0.406-1.269,0.001c-4.412,3.691-8.855,7.346-13.266,11.04c-0.572,0.479-0.994,0.535-1.631,0.113
					c-1.554-1.028-3.159-1.982-4.749-2.958c-0.228-0.14-0.486-0.233-0.902-0.428c0.001,1.272,0.043,2.379-0.013,3.481
					c-0.037,0.738,0.249,1.156,0.882,1.531c5.68,3.364,11.343,6.754,17.006,10.146c1.024,0.613,2.023,1.266,3.033,1.9
					c0.192,0,0.384,0,0.576,0c1.03-0.648,2.05-1.314,3.093-1.94c5.679-3.411,11.36-6.818,17.053-10.206
					c0.539-0.321,0.783-0.688,0.755-1.313C85.167,86.621,85.204,85.696,85.192,84.771z"/>
			</g>
		</g>
		<g id="Symbol_13_">
			<g id="XMLID_1405_">
				<path id="XMLID_1406_" fill-rule="evenodd" clip-rule="evenodd" fill="#FFFFFF" d="M99.988,46.634c0-0.047,0-0.095,0-0.142
					c-5.807-3.758-11.616-7.513-17.42-11.276c-1.119-0.726-2.217-1.482-3.324-2.225c-0.144,0-0.288,0-0.432,0
					c-2.053,1.706-4.101,3.417-6.159,5.116c-2.703,2.231-5.418,4.447-8.117,6.682c-0.364,0.302-0.629,0.39-1.044,0.048
					c-4.708-3.883-9.432-7.748-14.15-11.62c-0.073-0.06-0.13-0.139-0.195-0.208c-0.144,0-0.288,0-0.432,0
					c-0.126,0.108-0.241,0.232-0.379,0.322c-6.782,4.403-13.565,8.804-20.348,13.204c0,0.047,0,0.095,0,0.142
					c4.86,3.844,9.721,7.688,14.678,11.609c-4.881,3.875-9.657,7.666-14.527,11.532c0.316,0.236,0.526,0.414,0.755,0.562
					c6.592,4.244,13.191,8.478,19.773,12.737c0.53,0.343,0.863,0.272,1.314-0.106c4.426-3.71,8.877-7.391,13.296-11.109
					c0.555-0.467,0.898-0.468,1.453-0.001c4.386,3.684,8.808,7.324,13.192,11.01c0.587,0.493,0.984,0.483,1.613,0.074
					c6.493-4.221,13.008-8.408,19.516-12.606c0.236-0.152,0.461-0.32,0.837-0.582c-4.877-3.863-9.668-7.659-14.564-11.537
					C90.277,54.334,95.132,50.484,99.988,46.634z M81.191,60.674c-5.467,3.346-10.938,6.683-16.395,10.045
					c-0.561,0.346-0.993,0.367-1.568,0.014c-6.583-4.042-13.18-8.06-19.773-12.085c-0.141-0.086-0.273-0.185-0.508-0.345
					c0.225-0.169,0.391-0.317,0.579-0.432c6.549-4.006,13.103-8.003,19.642-12.025c0.588-0.361,1.022-0.381,1.621-0.013
					c6.563,4.029,13.143,8.029,19.717,12.039c0.159,0.097,0.303,0.218,0.573,0.415C83.71,59.128,82.452,59.903,81.191,60.674z
					 M85.192,82.771c-0.003-0.243-0.061-0.486-0.109-0.842c-0.34,0.179-0.573,0.286-0.789,0.419
					c-1.587,0.98-3.191,1.935-4.744,2.965c-0.637,0.422-1.059,0.367-1.631-0.111c-4.415-3.688-8.863-7.338-13.28-11.024
					c-0.487-0.406-0.782-0.406-1.269,0.001c-4.412,3.691-8.855,7.346-13.266,11.04c-0.572,0.479-0.994,0.535-1.631,0.113
					c-1.554-1.028-3.159-1.982-4.749-2.957c-0.228-0.14-0.486-0.233-0.902-0.428c0.001,1.272,0.043,2.379-0.013,3.481
					c-0.037,0.738,0.249,1.156,0.882,1.531c5.68,3.364,11.343,6.754,17.006,10.146c1.024,0.613,2.023,1.266,3.033,1.9
					c0.192,0,0.384,0,0.576,0c1.03-0.648,2.05-1.314,3.093-1.94c5.679-3.411,11.36-6.818,17.053-10.206
					c0.539-0.321,0.783-0.688,0.755-1.313C85.167,84.621,85.204,83.696,85.192,82.771z"/>
			</g>
		</g>
	</g>
</g>
</svg>
