<?xml version="1.0" encoding="utf-8"?>
<!-- Generator: Adobe Illustrator 18.1.1, SVG Export Plug-In . SVG Version: 6.00 Build 0)  -->
<svg version="1.1" xmlns="http://www.w3.org/2000/svg" xmlns:xlink="http://www.w3.org/1999/xlink" x="0px" y="0px"
	 viewBox="0 0 128 128" enable-background="new 0 0 128 128" xml:space="preserve">
<g id="Email">
	<g id="XMLID_1602_">
		<g id="Color_Base_23_">
			<g id="XMLID_736_">
				<circle id="XMLID_788_" fill-rule="evenodd" clip-rule="evenodd" fill="#00ACFF" cx="64" cy="64" r="64"/>
			</g>
		</g>
		<g id="Border_23_" opacity="0.102">
			<g id="XMLID_2362_">
				<path id="XMLID_2363_" fill-rule="evenodd" clip-rule="evenodd" d="M64,0C28.654,0,0,28.654,0,64s28.654,64,64,64
					c35.346,0,64-28.654,64-64S99.346,0,64,0z M64,122C31.967,122,6,96.032,6,64S31.967,6,64,6s58,25.968,58,58S96.033,122,64,122z"
					/>
			</g>
		</g>
		<g id="Corner_Hightlight_23_" opacity="0.2588">
			<g id="XMLID_856_">
				<path id="XMLID_914_" fill-rule="evenodd" clip-rule="evenodd" fill="#FFFFFF" d="M63.964,127.999
					c0.012,0,0.024,0.001,0.036,0.001c2.503,0,4.968-0.159,7.397-0.439c10.229-14.739,26.485-24.966,45.207-27.122
					c1.412-2.035,2.713-4.152,3.886-6.35C96.468,95.275,75.638,108.572,63.964,127.999z"/>
			</g>
		</g>
		<g id="Large_Shadow_23_" opacity="0.051">
			<g id="XMLID_915_">
				<path id="XMLID_927_" fill-rule="evenodd" clip-rule="evenodd" d="M117.04,28.175C70.481,30.522,30.1,56.286,7.426,93.924
					C18.168,114.189,39.466,128,64,128c35.346,0,64-28.654,64-64C128,50.727,123.958,38.398,117.04,28.175z"/>
			</g>
		</g>
		<g id="Shadow_23_">
			<g id="XMLID_938_">
				<path id="XMLID_1021_" fill-rule="evenodd" clip-rule="evenodd" fill="#F14330" d="M71.397,127.561
					c18.722-2.156,34.978-12.384,45.207-27.122C97.882,102.595,81.626,112.823,71.397,127.561z"/>
			</g>
		</g>
		<g id="Highlight_23_" opacity="0.149">
			<g id="XMLID_1022_">
				<path id="XMLID_1023_" fill-rule="evenodd" clip-rule="evenodd" fill="#FFFFFF" d="M71.397,127.561
					c3.033-0.349,6.003-0.901,8.891-1.659c7.892-9.047,18.541-15.617,30.643-18.405c2.052-2.213,3.947-4.571,5.673-7.058
					C97.882,102.595,81.626,112.823,71.397,127.561z"/>
			</g>
		</g>
		<g id="Symbol_Shadow_23_" opacity="0.051">
			<g id="XMLID_2366_">
				<path id="XMLID_2367_" fill-rule="evenodd" clip-rule="evenodd" d="M64,80c-3.866,0-7.366-1.567-9.9-4.101L28,49.799v32.402
					l13.601-13.601l2.828,2.828L28,87.858V90c0,1.105,0.895,2,2,2h68c1.105,0,2-0.895,2-2v-2.142L83.571,71.429l2.828-2.828
					L100,82.201V49.799L73.9,75.9C71.366,78.433,67.866,80,64,80z M98,40H30c-1.105,0-2,0.895-2,2v2.142l28.929,28.929
					C58.739,74.881,61.239,76,64,76s5.261-1.119,7.071-2.929h0L100,44.142V42C100,40.895,99.105,40,98,40z"/>
			</g>
		</g>
		<g id="Symbol_23_">
			<g id="XMLID_2370_">
				<path id="XMLID_2371_" fill-rule="evenodd" clip-rule="evenodd" fill="#FFFFFF" d="M64,78c-3.866,0-7.366-1.567-9.9-4.1
					L28,47.799v32.402l13.601-13.601l2.828,2.828L28,85.858V88c0,1.105,0.895,2,2,2h68c1.105,0,2-0.895,2-2v-2.142L83.571,69.429
					l2.828-2.828L100,80.201V47.799L73.9,73.9C71.366,76.433,67.866,78,64,78z M98,38H30c-1.105,0-2,0.895-2,2v2.142l28.929,28.929
					C58.739,72.881,61.239,74,64,74s5.261-1.119,7.071-2.929h0L100,42.142V40C100,38.895,99.105,38,98,38z"/>
			</g>
		</g>
	</g>
</g>
</svg>
