<?xml version="1.0" encoding="utf-8"?>
<!-- Generator: Adobe Illustrator 18.1.1, SVG Export Plug-In . SVG Version: 6.00 Build 0)  -->
<svg version="1.1" xmlns="http://www.w3.org/2000/svg" xmlns:xlink="http://www.w3.org/1999/xlink" x="0px" y="0px"
	 viewBox="0 0 128 128" enable-background="new 0 0 128 128" xml:space="preserve">
<g id="Gear">
	<g id="XMLID_1605_">
		<g id="Color_Base_21_">
			<g id="XMLID_814_">
				<circle id="XMLID_815_" fill-rule="evenodd" clip-rule="evenodd" fill="#FFCD34" cx="64" cy="64" r="64"/>
			</g>
		</g>
		<g id="Border_21_" opacity="0.102">
			<g id="XMLID_955_">
				<path id="XMLID_956_" fill-rule="evenodd" clip-rule="evenodd" d="M64,0C28.654,0,0,28.654,0,64s28.654,64,64,64
					c35.346,0,64-28.654,64-64S99.346,0,64,0z M64,122C31.967,122,6,96.032,6,64S31.967,6,64,6s58,25.968,58,58S96.033,122,64,122z"
					/>
			</g>
		</g>
		<g id="Corner_Hightlight_21_" opacity="0.2588">
			<g id="XMLID_801_">
				<path id="XMLID_803_" fill-rule="evenodd" clip-rule="evenodd" fill="#FFFFFF" d="M63.964,127.999
					c0.012,0,0.024,0.001,0.036,0.001c2.503,0,4.968-0.159,7.397-0.439c10.229-14.739,26.485-24.966,45.207-27.122
					c1.412-2.035,2.713-4.152,3.886-6.35C96.468,95.275,75.638,108.572,63.964,127.999z"/>
			</g>
		</g>
		<g id="Large_Shadow_21_" opacity="0.0314">
			<g id="XMLID_805_">
				<path id="XMLID_812_" fill-rule="evenodd" clip-rule="evenodd" d="M117.04,28.175C70.481,30.522,30.1,56.286,7.426,93.924
					C18.168,114.189,39.466,128,64,128c35.346,0,64-28.654,64-64C128,50.727,123.958,38.398,117.04,28.175z"/>
			</g>
		</g>
		<g id="Shadow_21_">
			<g id="XMLID_810_">
				<path id="XMLID_813_" fill-rule="evenodd" clip-rule="evenodd" fill="#E783DF" d="M71.397,127.561
					c18.722-2.156,34.978-12.384,45.207-27.122C97.882,102.595,81.626,112.823,71.397,127.561z"/>
			</g>
		</g>
		<g id="Highlight_21_" opacity="0.149">
			<g id="XMLID_808_">
				<path id="XMLID_809_" fill-rule="evenodd" clip-rule="evenodd" fill="#FFFFFF" d="M71.397,127.561
					c3.033-0.349,6.003-0.901,8.891-1.659c7.892-9.047,18.541-15.617,30.643-18.405c2.052-2.213,3.947-4.571,5.673-7.058
					C97.882,102.595,81.626,112.823,71.397,127.561z"/>
			</g>
		</g>
		<g id="Symbol_Shadow_21_" opacity="0.051">
			<g id="XMLID_1252_">
				<path id="XMLID_1253_" fill-rule="evenodd" clip-rule="evenodd" d="M102.63,58.111l0.003-0.008l-9.717-3.239
					c-0.187-0.483-0.386-0.961-0.596-1.433l4.582-9.164l-0.008-0.004c0.374-0.749,0.258-1.68-0.367-2.305l-8.485-8.485
					c-0.624-0.624-1.556-0.741-2.305-0.367l-0.004-0.008l-9.168,4.584c-0.475-0.211-0.947-0.428-1.434-0.615l-3.233-9.7
					l-0.008,0.003C71.624,26.576,70.883,26,70,26H58c-0.883,0-1.624,0.576-1.889,1.37l-0.008-0.003l-3.233,9.699
					c-0.487,0.188-0.96,0.402-1.433,0.616l-9.17-4.585l-0.004,0.008c-0.749-0.374-1.68-0.258-2.305,0.367l-8.485,8.485
					c-0.624,0.625-0.741,1.556-0.367,2.305l-0.008,0.004l4.581,9.163c-0.208,0.468-0.393,0.948-0.577,1.428l-9.736,3.245
					l0.003,0.008C24.576,58.376,24,59.117,24,60v12c0,0.883,0.576,1.624,1.37,1.889l-0.003,0.008l9.717,3.239
					c0.187,0.484,0.385,0.962,0.595,1.434l-4.581,9.163l0.008,0.004c-0.374,0.749-0.258,1.68,0.367,2.305l8.485,8.485
					c0.624,0.625,1.556,0.741,2.305,0.367l0.004,0.008l9.172-4.586c0.474,0.211,0.944,0.43,1.43,0.618l3.233,9.7l0.008-0.003
					C56.376,105.424,57.117,106,58,106h12c0.883,0,1.624-0.576,1.889-1.37l0.008,0.003l3.233-9.7
					c0.487-0.188,0.959-0.404,1.435-0.615l9.168,4.584l0.004-0.008c0.749,0.374,1.68,0.258,2.305-0.367l8.485-8.485
					c0.625-0.624,0.741-1.556,0.367-2.305l0.008-0.004l-4.58-9.16c0.211-0.473,0.41-0.953,0.598-1.438l9.713-3.238l-0.003-0.008
					C103.424,73.624,104,72.883,104,72V60C104,59.117,103.424,58.376,102.63,58.111z M64,87c-11.598,0-21-9.402-21-21
					c0-11.598,9.402-21,21-21c11.598,0,21,9.402,21,21C85,77.598,75.598,87,64,87z M64,54c-6.627,0-12,5.373-12,12
					c0,6.627,5.373,12,12,12s12-5.373,12-12C76,59.373,70.627,54,64,54z"/>
			</g>
		</g>
		<g id="Symbol_21_">
			<g id="XMLID_1270_">
				<path id="XMLID_1273_" fill-rule="evenodd" clip-rule="evenodd" fill="#FFFFFF" d="M102.63,56.111l0.003-0.008l-9.717-3.239
					c-0.187-0.483-0.386-0.961-0.596-1.433l4.582-9.164l-0.008-0.004c0.374-0.749,0.258-1.68-0.367-2.305l-8.485-8.485
					c-0.624-0.625-1.556-0.741-2.305-0.367l-0.004-0.008l-9.168,4.584c-0.475-0.211-0.947-0.428-1.434-0.615l-3.233-9.7
					l-0.008,0.003C71.624,24.576,70.883,24,70,24H58c-0.883,0-1.624,0.576-1.889,1.37l-0.008-0.003l-3.233,9.7
					c-0.487,0.188-0.96,0.402-1.433,0.616l-9.17-4.585l-0.004,0.008c-0.749-0.374-1.68-0.258-2.305,0.367l-8.485,8.485
					c-0.624,0.624-0.741,1.556-0.367,2.305l-0.008,0.004l4.581,9.163c-0.208,0.468-0.393,0.948-0.577,1.428l-9.736,3.245
					l0.003,0.008C24.576,56.376,24,57.117,24,58v12c0,0.883,0.576,1.624,1.37,1.889l-0.003,0.008l9.717,3.239
					c0.187,0.484,0.385,0.962,0.595,1.434l-4.581,9.163l0.008,0.004c-0.374,0.749-0.258,1.68,0.367,2.305l8.485,8.485
					c0.624,0.625,1.556,0.741,2.305,0.367l0.004,0.008l9.172-4.586c0.474,0.211,0.943,0.43,1.43,0.618l3.233,9.7l0.008-0.003
					C56.376,103.424,57.117,104,58,104h12c0.883,0,1.624-0.576,1.889-1.37l0.008,0.003l3.233-9.7
					c0.487-0.188,0.959-0.404,1.434-0.615l9.168,4.584l0.004-0.008c0.749,0.374,1.68,0.258,2.305-0.367l8.485-8.485
					c0.625-0.625,0.741-1.556,0.367-2.305l0.008-0.004l-4.58-9.16c0.211-0.473,0.41-0.953,0.598-1.438l9.713-3.238l-0.003-0.008
					C103.424,71.624,104,70.883,104,70V58C104,57.117,103.424,56.376,102.63,56.111z M64,85c-11.598,0-21-9.402-21-21
					c0-11.598,9.402-21,21-21c11.598,0,21,9.402,21,21C85,75.598,75.598,85,64,85z M64,52c-6.627,0-12,5.373-12,12
					c0,6.627,5.373,12,12,12s12-5.373,12-12C76,57.373,70.627,52,64,52z"/>
			</g>
		</g>
	</g>
</g>
</svg>
