<?xml version="1.0" encoding="utf-8"?>
<!-- Generator: Adobe Illustrator 18.1.1, SVG Export Plug-In . SVG Version: 6.00 Build 0)  -->
<svg version="1.1" xmlns="http://www.w3.org/2000/svg" xmlns:xlink="http://www.w3.org/1999/xlink" x="0px" y="0px"
	 viewBox="0 0 128 128" enable-background="new 0 0 128 128" xml:space="preserve">
<g id="Google_Drive">
	<g id="XMLID_1041_">
		<g id="Color_Base_14_">
			<g id="XMLID_1126_">
				<circle id="XMLID_1127_" fill-rule="evenodd" clip-rule="evenodd" fill="#FF8D1B" cx="64" cy="64" r="64"/>
			</g>
		</g>
		<g id="Border_14_" opacity="0.102">
			<g id="XMLID_1242_">
				<path id="XMLID_1256_" fill-rule="evenodd" clip-rule="evenodd" d="M64,0C28.654,0,0,28.654,0,64s28.654,64,64,64
					c35.346,0,64-28.654,64-64S99.346,0,64,0z M64,122C31.967,122,6,96.032,6,64C6,31.967,31.967,6,64,6s58,25.967,58,58
					C122,96.032,96.033,122,64,122z"/>
			</g>
		</g>
		<g id="Corner_Hightlight_14_" opacity="0.2588">
			<g id="XMLID_1109_">
				<path id="XMLID_1111_" fill-rule="evenodd" clip-rule="evenodd" fill="#FFFFFF" d="M63.964,127.999
					c0.012,0,0.024,0.001,0.036,0.001c2.503,0,4.968-0.159,7.397-0.439c10.229-14.739,26.485-24.967,45.207-27.122
					c1.412-2.035,2.713-4.153,3.886-6.35C96.468,95.275,75.638,108.572,63.964,127.999z"/>
			</g>
		</g>
		<g id="Large_Shadow_14_" opacity="0.0314">
			<g id="XMLID_1101_">
				<path id="XMLID_1103_" fill-rule="evenodd" clip-rule="evenodd" d="M117.04,28.175C70.481,30.522,30.1,56.286,7.426,93.924
					C18.168,114.189,39.466,128,64,128c35.346,0,64-28.654,64-64C128,50.727,123.958,38.398,117.04,28.175z"/>
			</g>
		</g>
		<g id="Shadow_14_">
			<g id="XMLID_1107_">
				<path id="XMLID_1115_" fill-rule="evenodd" clip-rule="evenodd" fill="#5C73CC" d="M71.397,127.561
					c18.722-2.156,34.978-12.384,45.207-27.122C97.882,102.595,81.626,112.823,71.397,127.561z"/>
			</g>
		</g>
		<g id="Highlight_14_" opacity="0.149">
			<g id="XMLID_1118_">
				<path id="XMLID_1119_" fill-rule="evenodd" clip-rule="evenodd" fill="#FFFFFF" d="M71.397,127.561
					c3.033-0.349,6.003-0.901,8.891-1.659c7.892-9.047,18.541-15.617,30.643-18.405c2.052-2.213,3.947-4.572,5.673-7.058
					C97.882,102.595,81.626,112.823,71.397,127.561z"/>
			</g>
		</g>
		<g id="Symbol_Shadow_14_" opacity="0.051">
			<g id="XMLID_1319_">
				<path id="XMLID_1348_" fill-rule="evenodd" clip-rule="evenodd" d="M55.484,76.333L43.484,97H88l12-20.667H55.484z
					 M98.258,73.333L76.001,35H52l22.259,38.333H98.258z M50.29,37.944L28,76.333L40.001,97l22.29-38.389L50.29,37.944z"/>
			</g>
		</g>
		<g id="Symbol_14_">
			<g id="XMLID_1423_">
				<path id="XMLID_1424_" fill-rule="evenodd" clip-rule="evenodd" fill="#FFFFFF" d="M55.484,74.333L43.484,95H88l12-20.667
					H55.484z M98.258,71.333L76.001,33H52l22.259,38.333H98.258z M50.29,35.944L28,74.333L40.001,95l22.29-38.389L50.29,35.944z"/>
			</g>
		</g>
	</g>
</g>
</svg>
