<?xml version="1.0" encoding="utf-8"?>
<!-- Generator: Adobe Illustrator 18.1.1, SVG Export Plug-In . SVG Version: 6.00 Build 0)  -->
<svg version="1.1" xmlns="http://www.w3.org/2000/svg" xmlns:xlink="http://www.w3.org/1999/xlink" x="0px" y="0px"
	 viewBox="0 0 128 128" enable-background="new 0 0 128 128" xml:space="preserve">
<g id="Hard_Drive">
	<g id="XMLID_1601_">
		<g id="Color_Base_24_">
			<g id="XMLID_731_">
				<circle id="XMLID_1030_" fill-rule="evenodd" clip-rule="evenodd" fill="#E783DF" cx="64" cy="64" r="64"/>
			</g>
		</g>
		<g id="Border_24_" opacity="0.102">
			<g id="XMLID_1208_">
				<path id="XMLID_1209_" fill-rule="evenodd" clip-rule="evenodd" d="M64,0C28.654,0,0,28.654,0,64s28.654,64,64,64
					c35.346,0,64-28.654,64-64S99.346,0,64,0z M64,122C31.967,122,6,96.032,6,64S31.967,6,64,6s58,25.968,58,58S96.033,122,64,122z"
					/>
			</g>
		</g>
		<g id="Corner_Hightlight_24_" opacity="0.2588">
			<g id="XMLID_1097_">
				<path id="XMLID_1162_" fill-rule="evenodd" clip-rule="evenodd" fill="#FFFFFF" d="M63.964,127.999
					c0.012,0,0.024,0.001,0.036,0.001c2.503,0,4.968-0.159,7.397-0.439c10.229-14.739,26.485-24.966,45.207-27.122
					c1.412-2.035,2.713-4.152,3.886-6.35C96.468,95.275,75.638,108.572,63.964,127.999z"/>
			</g>
		</g>
		<g id="Large_Shadow_24_" opacity="0.051">
			<g id="XMLID_1087_">
				<path id="XMLID_1177_" fill-rule="evenodd" clip-rule="evenodd" d="M117.04,28.175C70.481,30.522,30.1,56.286,7.426,93.924
					C18.168,114.189,39.466,128,64,128c35.346,0,64-28.654,64-64C128,50.727,123.958,38.398,117.04,28.175z"/>
			</g>
		</g>
		<g id="Shadow_24_">
			<g id="XMLID_734_">
				<path id="XMLID_940_" fill-rule="evenodd" clip-rule="evenodd" fill="#3ACA90" d="M71.397,127.561
					c18.722-2.156,34.978-12.384,45.207-27.122C97.882,102.595,81.626,112.823,71.397,127.561z"/>
			</g>
		</g>
		<g id="Highlight_24_" opacity="0.149">
			<g id="XMLID_732_">
				<path id="XMLID_733_" fill-rule="evenodd" clip-rule="evenodd" fill="#FFFFFF" d="M71.397,127.561
					c3.033-0.349,6.003-0.901,8.891-1.659c7.892-9.047,18.541-15.617,30.643-18.405c2.052-2.213,3.947-4.571,5.673-7.058
					C97.882,102.595,81.626,112.823,71.397,127.561z"/>
			</g>
		</g>
		<g id="Symbol_Shadow_24_" opacity="0.051">
			<g id="XMLID_2418_">
				<path id="XMLID_2419_" fill-rule="evenodd" clip-rule="evenodd" d="M84,42c1.105,0,2-0.895,2-2c0-1.105-0.895-2-2-2
					s-2,0.895-2,2C82,41.105,82.895,42,84,42z M44,94c1.105,0,2-0.895,2-2c0-1.105-0.895-2-2-2s-2,0.895-2,2
					C42,93.105,42.895,94,44,94z M84.068,83.604c-0.039-0.035-0.076-0.068-0.119-0.105c-0.08-0.066-0.168-0.135-0.262-0.206
					c-0.038-0.029-0.079-0.059-0.12-0.088c-0.355-0.26-0.792-0.55-1.303-0.866c-0.004-0.002-0.007-0.005-0.011-0.007
					C77.305,79.275,65.993,74,65.993,74s2.366,5.073,4.847,9.91c0.002-0.001,0.004-0.001,0.006-0.002
					c1.912,3.727,3.892,7.315,4.912,8.335c1.171,1.171,2.705,1.756,4.24,1.757c1.535-0.001,3.069-0.586,4.24-1.757
					c2.343-2.343,2.343-6.142,0-8.485C84.189,83.71,84.127,83.656,84.068,83.604z M80,90c-1.105,0-2-0.895-2-2c0-1.105,0.895-2,2-2
					c1.105,0,2,0.895,2,2C82,89.105,81.105,90,80,90z M44,42c1.105,0,2-0.895,2-2c0-1.105-0.895-2-2-2s-2,0.895-2,2
					C42,41.105,42.895,42,44,42z M64,66c1.657,0,3-1.343,3-3c0-1.657-1.343-3-3-3s-3,1.343-3,3C61,64.657,62.343,66,64,66z M64,85
					c0.948,0,1.877-0.077,2.793-0.194c-1.756-3.452-3.411-6.94-4.425-9.115c-0.711-1.524-0.392-3.33,0.797-4.519
					C63.931,70.405,64.955,70,65.994,70c0.572,0,1.148,0.123,1.69,0.375c3.075,1.434,8.772,4.148,13.283,6.617
					C84.107,73.189,86,68.318,86,63c0-12.15-9.85-22-22-22c-12.15,0-22,9.85-22,22C42,75.15,51.85,85,64,85z M64,56
					c3.866,0,7,3.134,7,7c0,3.866-3.134,7-7,7s-7-3.134-7-7C57,59.134,60.134,56,64,56z M90,30H38c-2.209,0-4,1.791-4,4v64
					c0,2.209,1.791,4,4,4h52c2.209,0,4-1.791,4-4V34C94,31.791,92.209,30,90,30z M90,98H38V34h52V98z"/>
			</g>
		</g>
		<g id="Symbol_24_">
			<g id="XMLID_2440_">
				<path id="XMLID_2441_" fill-rule="evenodd" clip-rule="evenodd" fill="#FFFFFF" d="M44,40c1.105,0,2-0.896,2-2s-0.895-2-2-2
					s-2,0.895-2,2S42.895,40,44,40z M84.066,81.603c-0.038-0.034-0.074-0.067-0.117-0.102c-0.08-0.066-0.169-0.136-0.264-0.208
					c-0.037-0.028-0.077-0.057-0.116-0.086c-0.355-0.261-0.794-0.552-1.307-0.869c-0.003-0.002-0.006-0.003-0.008-0.005
					C77.307,77.276,65.993,72,65.993,72s2.366,5.073,4.847,9.91c0.002-0.001,0.004-0.001,0.006-0.002
					c1.912,3.727,3.892,7.315,4.912,8.334c1.171,1.171,2.705,1.756,4.24,1.757c1.534-0.001,3.069-0.586,4.24-1.757
					c2.343-2.343,2.343-6.142,0-8.485C84.188,81.709,84.126,81.655,84.066,81.603z M80,88c-1.105,0-2-0.895-2-2c0-1.105,0.895-2,2-2
					c1.105,0,2,0.895,2,2C82,87.105,81.105,88,80,88z M84,40c1.105,0,2-0.896,2-2s-0.895-2-2-2s-2,0.895-2,2S82.895,40,84,40z
					 M64,64c1.657,0,3-1.343,3-3c0-1.657-1.343-3-3-3s-3,1.343-3,3C61,62.657,62.343,64,64,64z M64,83
					c0.948,0,1.877-0.077,2.793-0.194c-1.756-3.452-3.411-6.94-4.425-9.115c-0.711-1.524-0.392-3.33,0.797-4.519
					C63.931,68.405,64.955,68,65.994,68c0.572,0,1.148,0.123,1.69,0.375c3.075,1.434,8.772,4.148,13.283,6.617
					C84.107,71.189,86,66.318,86,61c0-12.15-9.85-22-22-22c-12.15,0-22,9.85-22,22C42,73.15,51.85,83,64,83z M64,54
					c3.866,0,7,3.134,7,7c0,3.866-3.134,7-7,7s-7-3.134-7-7C57,57.134,60.134,54,64,54z M90,28H38c-2.209,0-4,1.791-4,4v64
					c0,2.209,1.791,4,4,4h52c2.209,0,4-1.791,4-4V32C94,29.791,92.209,28,90,28z M90,96H38V32h52V96z M44,92c1.105,0,2-0.895,2-2
					c0-1.105-0.895-2-2-2s-2,0.895-2,2C42,91.105,42.895,92,44,92z"/>
			</g>
		</g>
	</g>
</g>
</svg>
