<?xml version="1.0" encoding="utf-8"?>
<!-- Generator: Adobe Illustrator 18.1.1, SVG Export Plug-In . SVG Version: 6.00 Build 0)  -->
<svg version="1.1" xmlns="http://www.w3.org/2000/svg" xmlns:xlink="http://www.w3.org/1999/xlink" x="0px" y="0px"
	 viewBox="0 0 128 128" enable-background="new 0 0 128 128" xml:space="preserve">
<g id="Laptop">
	<g id="XMLID_1592_">
		<g id="Color_Base_17_">
			<g id="XMLID_1010_">
				<circle id="XMLID_1011_" fill-rule="evenodd" clip-rule="evenodd" fill="#FF8D1B" cx="64" cy="64" r="64"/>
			</g>
		</g>
		<g id="Border_17_" opacity="0.102">
			<g id="XMLID_1630_">
				<path id="XMLID_1631_" fill-rule="evenodd" clip-rule="evenodd" d="M64,0C28.654,0,0,28.654,0,64c0,35.346,28.654,64,64,64
					c35.346,0,64-28.654,64-64C128,28.654,99.346,0,64,0z M64,122C31.967,122,6,96.032,6,64C6,31.967,31.967,6,64,6s58,25.968,58,58
					C122,96.032,96.033,122,64,122z"/>
			</g>
		</g>
		<g id="Corner_Hightlight_17_" opacity="0.2588">
			<g id="XMLID_983_">
				<path id="XMLID_984_" fill-rule="evenodd" clip-rule="evenodd" fill="#FFFFFF" d="M63.964,127.999
					c0.012,0,0.024,0.001,0.036,0.001c2.503,0,4.968-0.159,7.397-0.439c10.229-14.739,26.485-24.966,45.207-27.122
					c1.412-2.035,2.713-4.153,3.886-6.35C96.468,95.275,75.638,108.572,63.964,127.999z"/>
			</g>
		</g>
		<g id="Large_Shadow_17_" opacity="0.0314">
			<g id="XMLID_974_">
				<path id="XMLID_985_" fill-rule="evenodd" clip-rule="evenodd" d="M117.04,28.175C70.481,30.522,30.1,56.286,7.426,93.924
					C18.168,114.189,39.466,128,64,128c35.346,0,64-28.654,64-64C128,50.727,123.958,38.398,117.04,28.175z"/>
			</g>
		</g>
		<g id="Shadow_17_">
			<g id="XMLID_986_">
				<path id="XMLID_997_" fill-rule="evenodd" clip-rule="evenodd" fill="#3ACA90" d="M71.397,127.561
					c18.722-2.156,34.978-12.384,45.207-27.122C97.882,102.595,81.626,112.823,71.397,127.561z"/>
			</g>
		</g>
		<g id="Highlight_17_" opacity="0.149">
			<g id="XMLID_987_">
				<path id="XMLID_996_" fill-rule="evenodd" clip-rule="evenodd" fill="#FFFFFF" d="M71.397,127.561
					c3.033-0.349,6.003-0.901,8.891-1.659c7.892-9.047,18.541-15.617,30.643-18.405c2.052-2.213,3.947-4.571,5.673-7.058
					C97.882,102.595,81.626,112.823,71.397,127.561z"/>
			</g>
		</g>
		<g id="Symbol_Shadow_17_" opacity="0.051">
			<g id="XMLID_1638_">
				<path id="XMLID_1639_" fill-rule="evenodd" clip-rule="evenodd" d="M102,85h-6V45c0-1.105-0.895-2-2-2H34c-1.105,0-2,0.895-2,2
					v40h-6c-1.104,0-2,0.896-2,2s0.895,2,2,2h8h60h8c1.104,0,2-0.895,2-2S103.104,85,102,85z M92,85H72c0,0.552-0.448,1-1,1H57
					c-0.552,0-1-0.448-1-1H36V47h56V85z"/>
			</g>
		</g>
		<g id="Symbol_17_">
			<g id="XMLID_1642_">
				<path id="XMLID_1643_" fill-rule="evenodd" clip-rule="evenodd" fill="#FFFFFF" d="M102,83h-6V43c0-1.105-0.895-2-2-2H34
					c-1.105,0-2,0.896-2,2v40h-6c-1.104,0-2,0.895-2,2c0,1.105,0.895,2,2,2h8h60h8c1.104,0,2-0.895,2-2
					C104,83.895,103.104,83,102,83z M92,83H72c0,0.552-0.448,1-1,1H57c-0.552,0-1-0.448-1-1H36V45h56V83z"/>
			</g>
		</g>
	</g>
</g>
</svg>
