<?xml version="1.0" encoding="utf-8"?>
<!-- Generator: Adobe Illustrator 18.1.1, SVG Export Plug-In . SVG Version: 6.00 Build 0)  -->
<svg version="1.1" xmlns="http://www.w3.org/2000/svg" xmlns:xlink="http://www.w3.org/1999/xlink" x="0px" y="0px"
	 viewBox="0 0 128 128" enable-background="new 0 0 128 128" xml:space="preserve">
<g id="Meteor">
	<g>
		<g id="Color_Base_4_">
			<g id="XMLID_576_">
				<circle id="XMLID_577_" fill-rule="evenodd" clip-rule="evenodd" fill="#FFCD34" cx="64" cy="64" r="64"/>
			</g>
		</g>
		<g id="Border_4_" opacity="0.102">
			<g id="XMLID_611_">
				<path id="XMLID_612_" fill-rule="evenodd" clip-rule="evenodd" d="M64,0C28.654,0,0,28.654,0,64s28.654,64,64,64
					c35.346,0,64-28.654,64-64S99.346,0,64,0z M64,122C31.967,122,6,96.032,6,64C6,31.967,31.967,6,64,6s58,25.967,58,58
					C122,96.032,96.033,122,64,122z"/>
			</g>
		</g>
		<g id="Corner_Hightlight_4_" opacity="0.2588">
			<g id="XMLID_578_">
				<path id="XMLID_579_" fill-rule="evenodd" clip-rule="evenodd" fill="#FFFFFF" d="M63.964,127.999
					c0.012,0,0.024,0.001,0.036,0.001c2.503,0,4.968-0.159,7.397-0.439c10.229-14.739,26.485-24.966,45.207-27.122
					c1.412-2.035,2.713-4.152,3.886-6.35C96.468,95.275,75.638,108.572,63.964,127.999z"/>
			</g>
		</g>
		<g id="Large_Shadow_4_" opacity="0.0314">
			<g id="XMLID_588_">
				<path id="XMLID_589_" fill-rule="evenodd" clip-rule="evenodd" d="M117.04,28.175C70.481,30.522,30.1,56.286,7.426,93.924
					C18.168,114.189,39.466,128,64,128c35.346,0,64-28.654,64-64C128,50.727,123.958,38.398,117.04,28.175z"/>
			</g>
		</g>
		<g id="Shadow_4_">
			<g id="XMLID_590_">
				<path id="XMLID_593_" fill-rule="evenodd" clip-rule="evenodd" fill="#F14330" d="M71.397,127.561
					c18.722-2.156,34.978-12.384,45.207-27.122C97.882,102.595,81.626,112.823,71.397,127.561z"/>
			</g>
		</g>
		<g id="Highlight_4_" opacity="0.149">
			<g id="XMLID_591_">
				<path id="XMLID_594_" fill-rule="evenodd" clip-rule="evenodd" fill="#FFFFFF" d="M71.397,127.561
					c3.033-0.349,6.003-0.901,8.891-1.659c7.892-9.047,18.541-15.617,30.643-18.405c2.052-2.213,3.947-4.571,5.673-7.058
					C97.882,102.595,81.626,112.823,71.397,127.561z"/>
			</g>
		</g>
		<g id="Symbol_Shadow_4_" opacity="0.051">
			<g id="XMLID_649_">
				<path id="XMLID_650_" fill-rule="evenodd" clip-rule="evenodd" d="M28.385,31.028c-0.095-0.089-0.245-0.09-0.341,0
					c-0.1,0.094-0.105,0.25-0.011,0.35l61.072,64.482c0.04,0.042,0.087,0.089,0.13,0.129c1.203,1.123,3.095,1.065,4.227-0.129
					c1.131-1.194,1.073-3.073-0.13-4.196L28.385,31.028z M48.309,37.457c-0.095-0.088-0.244-0.089-0.34,0
					c-0.101,0.093-0.106,0.25-0.012,0.35l46.232,49.049c0.036,0.038,0.078,0.08,0.117,0.116c1.005,0.934,2.582,0.882,3.522-0.116
					c0.94-0.998,0.888-2.563-0.117-3.497L48.309,37.457z M34.86,50.809c-0.095-0.088-0.244-0.089-0.341,0
					c-0.1,0.093-0.106,0.25-0.012,0.35l46.232,49.049c0.036,0.038,0.078,0.08,0.117,0.116c1.005,0.933,2.582,0.882,3.522-0.116
					c0.94-0.998,0.888-2.563-0.117-3.497L34.86,50.809z M40.837,67.623c-0.095-0.086-0.242-0.088-0.338,0
					c-0.101,0.093-0.107,0.249-0.014,0.35l30.147,32.38c0.034,0.037,0.073,0.075,0.111,0.11c0.809,0.742,2.07,0.693,2.818-0.11
					c0.748-0.803,0.698-2.055-0.111-2.797L40.837,67.623z M99.351,74.807L65.244,43.391c-0.095-0.087-0.243-0.088-0.339,0
					c-0.101,0.093-0.107,0.249-0.013,0.35l31.641,33.863c0.033,0.035,0.07,0.072,0.106,0.105c0.807,0.744,2.069,0.697,2.818-0.105
					C100.206,76.802,100.158,75.55,99.351,74.807z M95.743,66.025c0.015,0.016,0.033,0.034,0.05,0.049
					c0.403,0.373,1.034,0.351,1.409-0.049c0.375-0.4,0.353-1.026-0.05-1.399L81.681,50.315c-0.095-0.087-0.244-0.089-0.34,0
					c-0.101,0.093-0.106,0.25-0.012,0.35L95.743,66.025z M47.313,82.459c-0.095-0.087-0.244-0.089-0.34,0
					c-0.101,0.093-0.106,0.25-0.012,0.35l14.415,15.36c0.015,0.016,0.033,0.034,0.05,0.049c0.403,0.373,1.034,0.351,1.409-0.049
					c0.375-0.4,0.353-1.026-0.05-1.399L47.313,82.459z"/>
			</g>
		</g>
		<g id="Symbol_4_">
			<g id="XMLID_658_">
				<path id="XMLID_659_" fill-rule="evenodd" clip-rule="evenodd" fill="#FFFFFF" d="M28.385,29.028
					c-0.095-0.089-0.245-0.09-0.341,0c-0.1,0.093-0.105,0.25-0.011,0.35l61.072,64.482c0.04,0.042,0.087,0.089,0.13,0.129
					c1.203,1.123,3.095,1.065,4.227-0.129c1.131-1.194,1.073-3.073-0.13-4.196L28.385,29.028z M48.309,35.457
					c-0.095-0.088-0.244-0.089-0.34,0c-0.101,0.093-0.106,0.25-0.012,0.35l46.232,49.049c0.036,0.038,0.078,0.08,0.117,0.116
					c1.005,0.934,2.582,0.882,3.522-0.116c0.94-0.997,0.888-2.563-0.117-3.497L48.309,35.457z M34.86,48.809
					c-0.095-0.088-0.244-0.089-0.341,0c-0.1,0.093-0.106,0.25-0.012,0.35L80.74,98.208c0.036,0.038,0.078,0.08,0.117,0.116
					c1.005,0.934,2.582,0.882,3.522-0.116c0.94-0.998,0.888-2.563-0.117-3.497L34.86,48.809z M40.837,65.623
					c-0.095-0.086-0.242-0.088-0.338,0c-0.101,0.093-0.107,0.249-0.014,0.35l30.147,32.38c0.034,0.037,0.073,0.075,0.111,0.11
					c0.809,0.742,2.07,0.693,2.818-0.11c0.748-0.803,0.698-2.055-0.111-2.797L40.837,65.623z M99.351,72.806L65.244,41.391
					c-0.095-0.087-0.243-0.088-0.339,0c-0.101,0.093-0.107,0.25-0.013,0.35l31.641,33.863c0.033,0.035,0.07,0.072,0.106,0.105
					c0.807,0.743,2.069,0.697,2.818-0.105C100.206,74.803,100.158,73.55,99.351,72.806z M95.743,64.025
					c0.015,0.016,0.033,0.034,0.05,0.049c0.403,0.373,1.034,0.35,1.409-0.049c0.375-0.4,0.353-1.026-0.05-1.399L81.681,48.315
					c-0.095-0.087-0.244-0.089-0.34,0c-0.101,0.093-0.106,0.25-0.012,0.35L95.743,64.025z M47.313,80.459
					c-0.095-0.087-0.244-0.089-0.34,0c-0.101,0.093-0.106,0.25-0.012,0.35l14.415,15.36c0.015,0.016,0.033,0.034,0.05,0.049
					c0.403,0.373,1.034,0.35,1.409-0.049c0.375-0.4,0.353-1.026-0.05-1.399L47.313,80.459z"/>
			</g>
		</g>
	</g>
</g>
</svg>
