<?xml version="1.0" encoding="utf-8"?>
<!-- Generator: Adobe Illustrator 18.1.1, SVG Export Plug-In . SVG Version: 6.00 Build 0)  -->
<svg version="1.1" xmlns="http://www.w3.org/2000/svg" xmlns:xlink="http://www.w3.org/1999/xlink" x="0px" y="0px"
	 viewBox="0 0 128 128" enable-background="new 0 0 128 128" xml:space="preserve">
<g id="Mobile">
	<g id="XMLID_1598_">
		<g id="Color_Base_19_">
			<g id="XMLID_882_">
				<circle id="XMLID_892_" fill-rule="evenodd" clip-rule="evenodd" fill="#5C73CC" cx="64" cy="64" r="64"/>
			</g>
		</g>
		<g id="Border_19_" opacity="0.102">
			<g id="XMLID_941_">
				<path id="XMLID_942_" fill-rule="evenodd" clip-rule="evenodd" d="M64,0C28.654,0,0,28.654,0,64c0,35.346,28.654,64,64,64
					c35.346,0,64-28.654,64-64C128,28.654,99.346,0,64,0z M64,122C31.967,122,6,96.032,6,64C6,31.967,31.967,6,64,6s58,25.968,58,58
					C122,96.032,96.033,122,64,122z"/>
			</g>
		</g>
		<g id="Corner_Hightlight_19_" opacity="0.2588">
			<g id="XMLID_886_">
				<path id="XMLID_887_" fill-rule="evenodd" clip-rule="evenodd" fill="#FFFFFF" d="M63.964,127.999
					c0.012,0,0.024,0.001,0.036,0.001c2.503,0,4.968-0.159,7.397-0.439c10.229-14.739,26.485-24.966,45.207-27.122
					c1.412-2.035,2.713-4.153,3.886-6.35C96.468,95.275,75.638,108.572,63.964,127.999z"/>
			</g>
		</g>
		<g id="Large_Shadow_19_" opacity="0.102">
			<g id="XMLID_889_">
				<path id="XMLID_890_" fill-rule="evenodd" clip-rule="evenodd" d="M117.04,28.175C70.481,30.522,30.1,56.286,7.426,93.924
					C18.168,114.189,39.466,128,64,128c35.346,0,64-28.654,64-64C128,50.727,123.958,38.398,117.04,28.175z"/>
			</g>
		</g>
		<g id="Shadow_19_">
			<g id="XMLID_888_">
				<path id="XMLID_891_" fill-rule="evenodd" clip-rule="evenodd" fill="#FFCD34" d="M71.397,127.561
					c18.722-2.156,34.978-12.384,45.207-27.122C97.882,102.595,81.626,112.823,71.397,127.561z"/>
			</g>
		</g>
		<g id="Highlight_19_" opacity="0.149">
			<g id="XMLID_880_">
				<path id="XMLID_881_" fill-rule="evenodd" clip-rule="evenodd" fill="#FFFFFF" d="M71.397,127.561
					c3.033-0.349,6.003-0.901,8.891-1.659c7.892-9.047,18.541-15.617,30.643-18.405c2.052-2.213,3.947-4.571,5.673-7.058
					C97.882,102.595,81.626,112.823,71.397,127.561z"/>
			</g>
		</g>
		<g id="Symbol_Shadow_19_" opacity="0.051">
			<g id="XMLID_1230_">
				<path id="XMLID_1287_" fill-rule="evenodd" clip-rule="evenodd" d="M77,34H51c-2.209,0-4,1.791-4,4v58c0,2.209,1.791,4,4,4h26
					c2.209,0,4-1.791,4-4V38C81,35.791,79.209,34,77,34z M63,38h6c0.552,0,1,0.448,1,1c0,0.552-0.448,1-1,1h-6c-0.552,0-1-0.448-1-1
					C62,38.448,62.448,38,63,38z M59,38c0.552,0,1,0.448,1,1c0,0.552-0.448,1-1,1s-1-0.448-1-1C58,38.448,58.448,38,59,38z M65,97
					c-1.105,0-2-0.895-2-2s0.895-2,2-2s2,0.895,2,2S66.105,97,65,97z M77,90H51V44h26V90z"/>
			</g>
		</g>
		<g id="Symbol_19_">
			<g id="XMLID_1629_">
				<path id="XMLID_1665_" fill-rule="evenodd" clip-rule="evenodd" fill="#FFFFFF" d="M77,32H51c-2.209,0-4,1.791-4,4v58
					c0,2.209,1.791,4,4,4h26c2.209,0,4-1.791,4-4V36C81,33.791,79.209,32,77,32z M63,36h6c0.552,0,1,0.448,1,1s-0.448,1-1,1h-6
					c-0.552,0-1-0.448-1-1S62.448,36,63,36z M59,36c0.552,0,1,0.448,1,1s-0.448,1-1,1s-1-0.448-1-1S58.448,36,59,36z M65,95
					c-1.105,0-2-0.895-2-2c0-1.105,0.895-2,2-2s2,0.895,2,2C67,94.105,66.105,95,65,95z M77,88H51V42h26V88z"/>
			</g>
		</g>
	</g>
</g>
</svg>
