<?xml version="1.0" encoding="utf-8"?>
<!-- Generator: Adobe Illustrator 18.1.1, SVG Export Plug-In . SVG Version: 6.00 Build 0)  -->
<svg version="1.1" xmlns="http://www.w3.org/2000/svg" xmlns:xlink="http://www.w3.org/1999/xlink" x="0px" y="0px"
	 viewBox="0 0 128 128" enable-background="new 0 0 128 128" xml:space="preserve">
<g id="Ruby">
	<g id="XMLID_99_">
		<g id="Color_Base_1_">
			<g id="XMLID_219_">
				<circle id="XMLID_220_" fill-rule="evenodd" clip-rule="evenodd" fill="#F14330" cx="64" cy="64" r="64"/>
			</g>
		</g>
		<g id="Border_1_" opacity="0.102">
			<g id="XMLID_270_">
				<path id="XMLID_271_" fill-rule="evenodd" clip-rule="evenodd" d="M64,0C28.654,0,0,28.654,0,64s28.654,64,64,64
					s64-28.654,64-64S99.346,0,64,0z M64,122C31.967,122,6,96.032,6,64C6,31.967,31.967,6,64,6s58,25.967,58,58
					C122,96.032,96.033,122,64,122z"/>
			</g>
		</g>
		<g id="Corner_Hightlight_1_" opacity="0.2588">
			<g id="XMLID_214_">
				<path id="XMLID_216_" fill-rule="evenodd" clip-rule="evenodd" fill="#FFFFFF" d="M63.964,127.999
					c0.012,0,0.024,0.001,0.036,0.001c2.503,0,4.968-0.159,7.397-0.439c10.229-14.739,26.485-24.966,45.207-27.122
					c1.412-2.035,2.713-4.152,3.886-6.35C96.468,95.275,75.638,108.572,63.964,127.999z"/>
			</g>
		</g>
		<g id="Large_Shadow_1_" opacity="0.051">
			<g id="XMLID_210_">
				<path id="XMLID_211_" fill-rule="evenodd" clip-rule="evenodd" d="M117.04,28.175C70.481,30.522,30.1,56.286,7.426,93.924
					C18.168,114.189,39.466,128,64,128c35.346,0,64-28.654,64-64C128,50.727,123.958,38.398,117.04,28.175z"/>
			</g>
		</g>
		<g id="Shadow_1_">
			<g id="XMLID_164_">
				<path id="XMLID_183_" fill-rule="evenodd" clip-rule="evenodd" fill="#3ACA90" d="M71.397,127.561
					c18.722-2.156,34.978-12.384,45.207-27.122C97.882,102.595,81.626,112.823,71.397,127.561z"/>
			</g>
		</g>
		<g id="Highlight_1_" opacity="0.149">
			<g id="XMLID_127_">
				<path id="XMLID_162_" fill-rule="evenodd" clip-rule="evenodd" fill="#FFFFFF" d="M71.397,127.561
					c3.033-0.349,6.003-0.901,8.891-1.659c7.892-9.047,18.541-15.617,30.643-18.405c2.052-2.213,3.947-4.571,5.673-7.058
					C97.882,102.595,81.626,112.823,71.397,127.561z"/>
			</g>
		</g>
		<g id="Symbol_Shadow_1_" opacity="0.051">
			<g id="XMLID_432_">
				<path id="XMLID_433_" fill-rule="evenodd" clip-rule="evenodd" d="M92.603,94.223c0.028-0.054,0.053-0.109,0.076-0.166
					c0.019-0.048,0.037-0.097,0.052-0.146c0.017-0.055,0.029-0.112,0.04-0.169c0.01-0.053,0.02-0.106,0.025-0.16
					c0.002-0.022,0.009-0.043,0.01-0.066l3.199-52.262c0.014-0.234-0.02-0.459-0.091-0.668c-0.053-1.548-0.264-2.999-0.647-4.33
					c-0.021-0.122-0.056-0.24-0.102-0.352c-0.595-1.892-1.539-3.533-2.863-4.847c-5.99-5.951-20.468-6.745-33.718-1.865
					c-0.762,0.217-1.544,0.477-2.35,0.789c-5.442,2.106-11.357,6.165-16.654,11.427C34.285,46.671,30.2,52.547,28.08,57.954
					c-0.684,1.745-1.137,3.389-1.369,4.914c-4.231,12.926-3.433,26.133,1.919,31.45c2.32,2.305,5.649,3.45,9.595,3.584
					c0.177,0.059,0.364,0.097,0.56,0.097c0.032,0,0.065-0.001,0.098-0.003l0.45-0.024c0.056,0.005,0.107,0.027,0.164,0.027
					c0.026,0,0.052-0.001,0.078-0.002c0.083-0.004,0.157-0.036,0.237-0.051l51.318-2.775c0.055-0.003,0.107-0.016,0.161-0.024
					c0.045-0.007,0.09-0.01,0.134-0.02c0.086-0.019,0.167-0.047,0.248-0.078c0.028-0.011,0.056-0.017,0.083-0.029
					c0.106-0.047,0.206-0.104,0.3-0.17c0.027-0.019,0.051-0.043,0.077-0.063c0.068-0.053,0.133-0.109,0.192-0.172
					c0.011-0.011,0.024-0.019,0.035-0.031c0.02-0.023,0.034-0.049,0.053-0.072c0.042-0.052,0.082-0.105,0.118-0.161
					C92.556,94.309,92.58,94.267,92.603,94.223z M28.32,70.801c0.156,0.192,0.323,0.376,0.5,0.552
					c0.183,0.182,0.375,0.351,0.575,0.511c0.066,0.053,0.138,0.099,0.206,0.15c0.138,0.102,0.275,0.204,0.42,0.297
					c0.086,0.055,0.176,0.103,0.264,0.154c0.021,0.012,0.041,0.024,0.061,0.036l-2.789,4.926
					C27.64,75.352,27.881,73.135,28.32,70.801L28.32,70.801z M45.766,72.167l25.031,7.229c-6.988,6.182-14.762,10.838-22.26,13.276
					c-2.434,0.792-4.741,1.305-6.858,1.544L45.766,72.167z M70.461,44.114c0.823-2.099,1.312-4.051,1.483-5.825l14.405,9.616
					L69.505,46.3C69.855,45.565,70.178,44.835,70.461,44.114z M90.299,51.828c-2.802,7.897-8.052,16.048-14.951,23.207
					l-5.694-25.174L90.299,51.828z M85.01,69.005l3.591,19.876L76.91,78.502C79.932,75.471,82.645,72.269,85.01,69.005z
					 M74.349,80.964l11.013,9.778l-19.011-3.347C69.076,85.478,71.765,83.337,74.349,80.964z M90.208,77.791l-2.352-13.017
					c1.334-2.135,2.52-4.275,3.54-6.392L90.208,77.791z M91.652,47.191l-14.809-9.885l15.229,0.931
					C92.556,40.717,92.416,43.775,91.652,47.191z M66.417,51.658l5.517,24.39l-23.786-6.87c3.665-2.198,7.368-5.097,10.812-8.518
					C61.854,57.784,64.369,54.724,66.417,51.658z M35.135,73.629c0.471-0.002,0.958-0.033,1.458-0.085
					c0.083-0.009,0.165-0.017,0.248-0.027c0.498-0.06,1.009-0.144,1.533-0.252c0.087-0.018,0.175-0.038,0.263-0.057
					c0.536-0.118,1.084-0.258,1.645-0.427c0.068-0.021,0.138-0.045,0.207-0.066c0.545-0.169,1.099-0.358,1.666-0.574l-3.004,16.2
					l-4.077-14.709C35.095,73.633,35.116,73.629,35.135,73.629z M62.043,90.223l12.971,2.284l-19.179,1.037
					C57.89,92.58,59.967,91.478,62.043,90.223z M90.646,34.611L76.57,33.751l6.326-3.512c2.847,0.621,5.264,1.694,6.895,3.314
					C90.107,33.868,90.388,34.227,90.646,34.611z M76.794,29.581l-5.658,3.141c-0.362-0.75-0.829-1.425-1.414-2.007
					c-0.189-0.188-0.389-0.362-0.596-0.526c-0.018-0.014-0.033-0.031-0.05-0.045C71.672,29.743,74.295,29.544,76.794,29.581z
					 M42.095,43.905c8.001-7.949,16.333-11.922,21.382-11.922c0.389,0,0.756,0.027,1.104,0.074c0.032,0.004,0.063,0.009,0.095,0.014
					c0.303,0.045,0.586,0.113,0.855,0.195c0.057,0.018,0.115,0.033,0.17,0.052c0.238,0.081,0.456,0.184,0.664,0.295
					c0.057,0.031,0.121,0.056,0.175,0.09c0.246,0.148,0.471,0.316,0.667,0.511c1.698,1.687,1.677,5.194-0.059,9.62
					c-1.945,4.961-5.746,10.406-10.703,15.331c-0.643,0.639-1.288,1.249-1.933,1.837c-0.258,0.235-0.521,0.454-0.782,0.683
					c-0.391,0.344-0.783,0.694-1.174,1.019c-0.277,0.231-0.557,0.444-0.835,0.667c-0.382,0.306-0.765,0.618-1.146,0.905
					c-0.228,0.173-0.457,0.33-0.686,0.497c-0.437,0.319-0.875,0.642-1.307,0.937c-0.127,0.086-0.253,0.163-0.379,0.248
					c-7.616,5.085-14.363,6.392-16.871,3.9c-0.193-0.192-0.358-0.415-0.507-0.653c-0.046-0.073-0.083-0.151-0.123-0.228
					c-0.094-0.174-0.177-0.359-0.25-0.554c-0.036-0.097-0.073-0.193-0.102-0.293c-0.073-0.242-0.132-0.497-0.175-0.766
					c-0.022-0.139-0.034-0.279-0.047-0.42c-0.019-0.192-0.032-0.389-0.037-0.592c-0.004-0.155-0.009-0.311-0.005-0.465
					c0.007-0.277,0.028-0.565,0.059-0.859c0.016-0.157,0.034-0.312,0.055-0.46c0.183-1.302,0.573-2.754,1.191-4.33
					C33.337,54.274,37.138,48.83,42.095,43.905z M27.895,84.033l4.281-7.561l4.933,17.801c-2.539-0.267-4.592-1.085-5.967-2.451
					C29.627,90.315,28.46,87.602,27.895,84.033z"/>
			</g>
		</g>
		<g id="Symbol_1_">
			<g id="XMLID_450_">
				<path id="XMLID_451_" fill-rule="evenodd" clip-rule="evenodd" fill="#FFFFFF" d="M92.603,92.223
					c0.028-0.054,0.054-0.109,0.076-0.166c0.019-0.048,0.037-0.096,0.052-0.146c0.017-0.055,0.029-0.112,0.04-0.169
					c0.01-0.053,0.02-0.106,0.025-0.16c0.002-0.022,0.009-0.043,0.01-0.066l3.199-52.262c0.014-0.234-0.02-0.459-0.091-0.668
					c-0.053-1.547-0.264-2.999-0.647-4.33c-0.021-0.122-0.056-0.24-0.102-0.353c-0.595-1.892-1.539-3.533-2.863-4.847
					c-5.99-5.951-20.469-6.745-33.719-1.864c-0.761,0.217-1.544,0.477-2.349,0.789c-5.442,2.106-11.357,6.165-16.654,11.427
					C34.285,44.671,30.2,50.547,28.08,55.954c-0.684,1.745-1.137,3.389-1.369,4.914c-4.231,12.926-3.433,26.133,1.919,31.45
					c2.32,2.305,5.649,3.45,9.595,3.584c0.177,0.059,0.364,0.097,0.56,0.097c0.032,0,0.065-0.001,0.098-0.003l0.45-0.024
					c0.056,0.005,0.107,0.027,0.163,0.027c0.026,0,0.052,0,0.078-0.002c0.083-0.004,0.157-0.036,0.237-0.051l51.318-2.775
					c0.056-0.003,0.108-0.016,0.162-0.024c0.044-0.007,0.089-0.01,0.132-0.02c0.086-0.019,0.168-0.048,0.249-0.079
					c0.027-0.01,0.056-0.016,0.083-0.028c0.106-0.047,0.206-0.104,0.3-0.17c0.026-0.018,0.049-0.042,0.075-0.062
					c0.068-0.054,0.134-0.11,0.193-0.173c0.011-0.011,0.024-0.019,0.034-0.031c0.02-0.023,0.034-0.048,0.053-0.072
					c0.042-0.052,0.082-0.105,0.119-0.162C92.556,92.309,92.58,92.267,92.603,92.223z M28.82,69.352
					c0.183,0.182,0.375,0.351,0.575,0.511c0.066,0.053,0.138,0.099,0.206,0.15c0.138,0.102,0.275,0.204,0.42,0.297
					c0.086,0.055,0.176,0.103,0.264,0.154c0.021,0.012,0.041,0.024,0.062,0.036l-2.789,4.926c0.083-2.075,0.323-4.291,0.763-6.626
					C28.477,68.992,28.643,69.177,28.82,69.352z M45.766,70.167l25.031,7.229c-6.988,6.182-14.762,10.838-22.26,13.276
					c-2.434,0.792-4.741,1.305-6.858,1.544L45.766,70.167z M70.461,42.114c0.823-2.099,1.312-4.051,1.483-5.825l14.405,9.616
					L69.505,44.3C69.856,43.565,70.178,42.835,70.461,42.114z M90.299,49.828c-2.802,7.897-8.052,16.048-14.951,23.207
					l-5.694-25.174L90.299,49.828z M85.01,67.005l3.591,19.876L76.91,76.502C79.932,73.471,82.645,70.269,85.01,67.005z
					 M74.349,78.964l11.013,9.778l-19.011-3.347C69.076,83.478,71.765,81.337,74.349,78.964z M90.208,75.791l-2.352-13.017
					c1.334-2.135,2.52-4.275,3.54-6.392L90.208,75.791z M91.652,45.191l-14.809-9.885l15.229,0.931
					C92.556,38.717,92.416,41.776,91.652,45.191z M66.417,49.658l5.517,24.39l-23.786-6.87c3.665-2.198,7.368-5.097,10.812-8.518
					C61.854,55.784,64.369,52.724,66.417,49.658z M35.137,71.629c0.47-0.002,0.957-0.033,1.456-0.085
					c0.083-0.009,0.166-0.017,0.251-0.027c0.497-0.06,1.008-0.143,1.531-0.252c0.088-0.018,0.177-0.038,0.265-0.058
					c0.536-0.118,1.082-0.258,1.643-0.426c0.069-0.021,0.14-0.045,0.21-0.067c0.544-0.169,1.098-0.358,1.664-0.573l-3.004,16.2
					l-4.077-14.709C35.095,71.633,35.117,71.63,35.137,71.629z M62.043,88.223l12.971,2.284l-19.178,1.037
					C57.891,90.58,59.967,89.478,62.043,88.223z M90.646,32.611L76.57,31.751l6.326-3.512c2.847,0.621,5.264,1.694,6.895,3.314
					C90.107,31.868,90.388,32.227,90.646,32.611z M76.793,27.581l-5.658,3.141c-0.362-0.75-0.829-1.425-1.414-2.007
					c-0.189-0.188-0.389-0.362-0.596-0.526c-0.018-0.014-0.033-0.031-0.05-0.045C71.672,27.743,74.295,27.544,76.793,27.581z
					 M42.095,41.905c8.001-7.949,16.333-11.922,21.382-11.922c0.39,0,0.757,0.027,1.106,0.074c0.031,0.004,0.061,0.009,0.092,0.014
					c0.304,0.045,0.588,0.113,0.858,0.195c0.056,0.017,0.114,0.032,0.168,0.051c0.239,0.082,0.458,0.184,0.666,0.297
					c0.056,0.031,0.119,0.055,0.173,0.088c0.246,0.148,0.472,0.316,0.668,0.511c1.698,1.687,1.677,5.194-0.059,9.62
					c-1.945,4.961-5.746,10.406-10.703,15.331c-0.643,0.639-1.288,1.249-1.933,1.837c-0.26,0.236-0.524,0.456-0.786,0.686
					c-0.39,0.342-0.78,0.691-1.169,1.014c-0.28,0.233-0.562,0.449-0.844,0.674c-0.379,0.303-0.76,0.613-1.137,0.898
					c-0.23,0.174-0.461,0.333-0.691,0.501c-0.435,0.318-0.872,0.639-1.303,0.933c-0.127,0.087-0.254,0.164-0.381,0.249
					c-7.616,5.085-14.362,6.391-16.87,3.9c-0.193-0.192-0.358-0.415-0.507-0.653c-0.046-0.073-0.083-0.151-0.123-0.228
					c-0.094-0.174-0.177-0.359-0.25-0.554c-0.036-0.097-0.073-0.193-0.102-0.293c-0.073-0.242-0.132-0.498-0.175-0.767
					c-0.022-0.139-0.033-0.279-0.047-0.419c-0.019-0.192-0.032-0.389-0.037-0.592c-0.004-0.155-0.009-0.311-0.005-0.465
					c0.007-0.277,0.028-0.564,0.059-0.859c0.016-0.157,0.034-0.312,0.055-0.461c0.183-1.302,0.573-2.754,1.191-4.33
					C33.337,52.274,37.138,46.83,42.095,41.905z M27.895,82.033l4.281-7.561l4.933,17.801c-2.539-0.267-4.592-1.085-5.967-2.451
					C29.627,88.315,28.46,85.602,27.895,82.033z"/>
			</g>
		</g>
	</g>
</g>
</svg>
