<?xml version="1.0" encoding="utf-8"?>
<!-- Generator: Adobe Illustrator 18.1.1, SVG Export Plug-In . SVG Version: 6.00 Build 0)  -->
<svg version="1.1" xmlns="http://www.w3.org/2000/svg" xmlns:xlink="http://www.w3.org/1999/xlink" x="0px" y="0px"
	 viewBox="0 0 128 128" enable-background="new 0 0 128 128" xml:space="preserve">
<g id="SASS">
	<g id="XMLID_1330_">
		<g id="Color_Base_9_">
			<g id="XMLID_1435_">
				<circle id="XMLID_1439_" fill-rule="evenodd" clip-rule="evenodd" fill="#3ACA90" cx="64" cy="64" r="64"/>
			</g>
		</g>
		<g id="Border_9_" opacity="0.102">
			<g id="XMLID_1499_">
				<path id="XMLID_1500_" fill-rule="evenodd" clip-rule="evenodd" d="M64,0C28.654,0,0,28.654,0,64c0,35.346,28.654,64,64,64
					c35.346,0,64-28.654,64-64C128,28.654,99.346,0,64,0z M64,122C31.967,122,6,96.032,6,64C6,31.967,31.967,6,64,6s58,25.968,58,58
					C122,96.032,96.033,122,64,122z"/>
			</g>
		</g>
		<g id="Corner_Hightlight_9_" opacity="0.2588">
			<g id="XMLID_1429_">
				<path id="XMLID_1431_" fill-rule="evenodd" clip-rule="evenodd" fill="#FFFFFF" d="M63.964,127.999
					c0.012,0,0.024,0.001,0.036,0.001c2.503,0,4.968-0.159,7.397-0.439c10.229-14.739,26.485-24.966,45.207-27.122
					c1.412-2.035,2.713-4.153,3.886-6.35C96.468,95.275,75.638,108.572,63.964,127.999z"/>
			</g>
		</g>
		<g id="Large_Shadow_9_" opacity="0.051">
			<g id="XMLID_1415_">
				<path id="XMLID_1416_" fill-rule="evenodd" clip-rule="evenodd" d="M117.04,28.175C70.481,30.522,30.1,56.286,7.426,93.924
					C18.168,114.189,39.466,128,64,128c35.346,0,64-28.654,64-64C128,50.727,123.958,38.398,117.04,28.175z"/>
			</g>
		</g>
		<g id="Shadow_9_">
			<g id="XMLID_1418_">
				<path id="XMLID_1427_" fill-rule="evenodd" clip-rule="evenodd" fill="#00ACFF" d="M71.397,127.561
					c18.722-2.156,34.978-12.384,45.207-27.122C97.882,102.595,81.626,112.823,71.397,127.561z"/>
			</g>
		</g>
		<g id="Highlight_9_" opacity="0.149">
			<g id="XMLID_1430_">
				<path id="XMLID_1432_" fill-rule="evenodd" clip-rule="evenodd" fill="#FFFFFF" d="M71.397,127.561
					c3.033-0.349,6.003-0.901,8.891-1.659c7.892-9.047,18.541-15.617,30.643-18.405c2.052-2.213,3.947-4.571,5.673-7.058
					C97.882,102.595,81.626,112.823,71.397,127.561z"/>
			</g>
		</g>
		<g id="Symbol_Shadow_9_" opacity="0.051">
			<g id="XMLID_1992_">
				<path id="XMLID_1993_" fill-rule="evenodd" clip-rule="evenodd" d="M96.582,70.226c-2.737,0-5.152,0.663-7.236,1.65
					c-0.769-1.426-1.538-2.745-1.646-3.74c-0.108-1.095-0.323-1.758-0.108-3.184c0.223-1.318,0.984-3.3,0.984-3.408
					c0-0.108-0.223-0.879-1.753-0.879c-1.646,0-2.96,0.332-3.176,0.771c-0.108,0.44-0.438,1.426-0.661,2.413
					c-0.331,1.426-3.176,6.708-4.821,9.453c-0.546-1.095-0.984-1.974-1.092-2.745c-0.115-1.103-0.331-1.758-0.115-3.184
					c0.223-1.318,0.984-3.3,0.984-3.408c0-0.108-0.223-0.879-1.753-0.879c-1.646,0-2.96,0.332-3.176,0.771
					c-0.108,0.432-0.331,1.426-0.654,2.413c-0.331,0.987-4.275,9.676-5.259,11.874c-0.554,1.095-0.992,2.082-1.323,2.745
					c0,0,0,0,0,0.108c-0.215,0.555-0.438,0.879-0.438,0.879c-0.223,0.44-0.438,0.771-0.546,0.771c-0.108,0-0.223-1.103,0-2.529
					c0.546-2.969,1.976-7.695,1.976-7.911c0-0.108,0.223-0.879-0.877-1.318c-1.1-0.439-1.538,0.332-1.645,0.332
					s-0.223,0.216-0.223,0.216s1.315-5.274-2.407-5.274c-2.299,0-5.482,2.529-7.013,4.834c-0.992,0.547-3.076,1.65-5.375,2.968
					c-0.877,0.44-1.753,0.987-2.637,1.426c-0.108-0.108-0.108-0.108-0.215-0.216c-4.498-4.726-12.718-8.134-12.387-14.511
					c0.108-2.305,0.984-8.466,15.786-15.937c12.164-6.045,21.922-4.395,23.675-0.663c2.414,5.274-5.259,15.166-17.87,16.6
					c-4.821,0.547-7.343-1.319-7.997-1.982c-0.661-0.771-0.769-0.771-0.984-0.663c-0.438,0.224-0.108,0.879,0,1.211
					c0.331,0.987,1.976,2.745,4.606,3.624c2.299,0.771,8.004,1.211,14.802-1.426c7.674-2.969,13.702-11.211,11.949-18.135
					c-1.761-7.032-13.495-9.337-24.452-5.382c-6.582,2.305-13.702,6.045-18.746,10.771c-6.028,5.713-7.013,10.663-6.69,12.753
					c1.423,7.363,11.511,12.09,15.563,15.721c-0.215,0.108-0.431,0.216-0.546,0.324c-2.084,0.987-9.75,5.058-11.618,9.345
					c-2.191,4.834,0.331,8.35,1.976,8.79c5.152,1.426,10.526-1.211,13.372-5.497c2.845-4.287,2.522-9.892,1.207-12.421v-0.108
					c0.546-0.332,1.1-0.663,1.538-0.987c0.984-0.655,2.076-1.211,2.953-1.65c-0.438,1.318-0.877,2.968-0.984,5.274
					c-0.223,2.753,0.877,6.268,2.414,7.695c0.661,0.663,1.422,0.663,1.976,0.663c1.753,0,2.522-1.426,3.399-3.076
					c1.1-2.09,1.976-4.503,1.976-4.503s-1.215,6.477,1.961,6.477c1.207,0,2.299-1.542,2.853-2.305c0,0,0,0,0.108-0.108
					c0.108-0.224,0.223-0.332,0.223-0.332c0.438-0.771,1.538-2.637,3.068-5.713c1.976-3.955,3.945-8.905,3.945-8.905
					s0.223,1.211,0.769,3.184c0.331,1.211,1.1,2.529,1.646,3.74c-0.438,0.663-0.769,0.987-0.769,0.987
					c-0.331,0.547-0.769,0.987-1.207,1.542c-1.645,1.866-3.506,4.063-3.722,4.726c-0.331,0.771-0.223,1.318,0.331,1.758
					c0.438,0.332,1.207,0.332,1.976,0.332c1.422-0.108,2.414-0.44,2.96-0.663c0.769-0.224,1.645-0.663,2.522-1.318
					c1.538-1.103,2.522-2.745,2.414-4.95c0-1.211-0.438-2.421-0.877-3.516c0.1-0.216,0.315-0.439,0.423-0.655
					c2.414-3.624,4.383-7.587,4.383-7.587s0.223,1.211,0.769,3.184c0.331,0.995,0.877,2.097,1.43,3.192
					c-2.307,1.874-3.729,4.071-4.275,5.497c-0.877,2.637-0.223,3.847,1.2,4.179c0.661,0.108,1.422-0.108,2.084-0.44
					c0.769-0.224,1.753-0.771,2.737-1.426c1.538-1.103,3.068-2.745,2.96-4.95c0-0.987-0.331-1.982-0.661-2.969
					c1.976-0.771,4.49-1.318,7.781-0.879c6.905,0.771,8.327,5.166,8.005,6.924c-0.223,1.866-1.753,2.861-2.191,3.076
					c-0.431,0.332-0.654,0.44-0.538,0.663c0.108,0.332,0.331,0.332,0.661,0.224c0.546-0.108,3.614-1.426,3.729-4.834
					C107.878,74.952,103.818,70.226,96.582,70.226z M43.204,88.36c-2.307,2.529-5.482,3.408-6.913,2.645
					c-1.538-0.879-0.877-4.619,1.976-7.255c1.753-1.65,3.945-3.076,5.375-4.063c0.331-0.224,0.877-0.547,1.423-0.879
					c0.108-0.108,0.108-0.108,0.108-0.108c0.108-0.116,0.223-0.116,0.331-0.231C46.595,82.315,45.611,85.723,43.204,88.36z
					 M59.859,76.934c-0.769,1.982-2.522,6.924-3.506,6.708c-0.877-0.224-1.422-4.071-0.215-7.811
					c0.661-1.866,1.976-4.179,2.737-5.058c1.207-1.426,2.63-1.866,2.96-1.318C62.381,70.226,60.412,75.723,59.859,76.934z
					 M76.744,79.131c0.108,2.305-2.084,3.847-3.068,4.395c-0.331,0.224-0.554,0.332-0.769,0.224
					c-0.108-0.116,0.108-0.332,0.108-0.332s1.753-1.866,2.414-2.745c0.438-0.447,0.877-1.103,1.315-1.766
					C76.744,79.015,76.744,79.015,76.744,79.131z M84.418,81.113c-0.223-0.224-0.223-0.771,0.654-2.529
					c0.331-0.663,1.1-1.874,2.414-3.084c0.108,0.439,0.223,0.879,0.223,1.318C87.594,79.679,85.625,80.673,84.418,81.113z"/>
			</g>
		</g>
		<g id="Symbol_9_">
			<g id="XMLID_2012_">
				<path id="XMLID_2013_" fill-rule="evenodd" clip-rule="evenodd" fill="#FFFFFF" d="M96.582,68.226
					c-2.737,0-5.152,0.663-7.236,1.65c-0.769-1.426-1.538-2.745-1.646-3.74c-0.108-1.095-0.323-1.758-0.108-3.184
					c0.223-1.318,0.984-3.3,0.984-3.408c0-0.108-0.223-0.879-1.753-0.879c-1.646,0-2.96,0.332-3.176,0.771
					c-0.108,0.439-0.438,1.426-0.661,2.413c-0.331,1.426-3.176,6.708-4.821,9.453c-0.546-1.095-0.984-1.974-1.092-2.745
					c-0.115-1.103-0.331-1.758-0.115-3.184c0.223-1.318,0.984-3.3,0.984-3.408s-0.223-0.879-1.753-0.879
					c-1.646,0-2.96,0.332-3.176,0.771c-0.108,0.432-0.331,1.426-0.654,2.413c-0.331,0.987-4.275,9.677-5.259,11.874
					c-0.554,1.095-0.992,2.082-1.323,2.745c0,0,0,0,0,0.108c-0.215,0.555-0.438,0.879-0.438,0.879
					c-0.223,0.44-0.438,0.771-0.546,0.771c-0.108,0-0.223-1.103,0-2.529c0.546-2.968,1.976-7.695,1.976-7.911
					c0-0.108,0.223-0.879-0.877-1.318c-1.1-0.44-1.538,0.332-1.645,0.332s-0.223,0.216-0.223,0.216s1.315-5.274-2.407-5.274
					c-2.299,0-5.482,2.529-7.013,4.834c-0.992,0.547-3.076,1.65-5.375,2.969c-0.877,0.44-1.753,0.987-2.637,1.426
					c-0.108-0.108-0.108-0.108-0.215-0.216c-4.498-4.726-12.718-8.134-12.387-14.511c0.108-2.305,0.984-8.466,15.786-15.937
					c12.164-6.045,21.922-4.395,23.675-0.663c2.414,5.274-5.259,15.166-17.87,16.6c-4.821,0.547-7.343-1.318-7.997-1.982
					c-0.661-0.771-0.769-0.771-0.984-0.663c-0.438,0.224-0.108,0.879,0,1.211c0.331,0.987,1.976,2.745,4.606,3.624
					c2.299,0.771,8.004,1.211,14.802-1.426c7.674-2.969,13.702-11.211,11.949-18.135c-1.761-7.032-13.495-9.337-24.452-5.382
					c-6.582,2.305-13.702,6.045-18.746,10.771c-6.028,5.713-7.013,10.663-6.69,12.753c1.423,7.363,11.511,12.09,15.563,15.721
					c-0.215,0.108-0.431,0.216-0.546,0.324c-2.084,0.987-9.75,5.058-11.618,9.345c-2.191,4.834,0.331,8.35,1.976,8.79
					c5.152,1.426,10.526-1.211,13.372-5.497s2.522-9.892,1.207-12.421v-0.108c0.546-0.332,1.1-0.663,1.538-0.987
					c0.984-0.655,2.076-1.211,2.953-1.65c-0.438,1.318-0.877,2.969-0.984,5.274c-0.223,2.753,0.877,6.269,2.414,7.695
					c0.661,0.663,1.422,0.663,1.976,0.663c1.753,0,2.522-1.426,3.399-3.076c1.1-2.089,1.976-4.503,1.976-4.503
					s-1.215,6.477,1.961,6.477c1.207,0,2.299-1.542,2.853-2.305c0,0,0,0,0.108-0.108c0.108-0.224,0.223-0.332,0.223-0.332
					c0.438-0.771,1.538-2.637,3.068-5.713c1.976-3.955,3.945-8.905,3.945-8.905s0.223,1.211,0.769,3.184
					c0.331,1.211,1.1,2.529,1.646,3.74c-0.438,0.663-0.769,0.987-0.769,0.987c-0.331,0.547-0.769,0.987-1.207,1.542
					c-1.645,1.866-3.506,4.063-3.722,4.726c-0.331,0.771-0.223,1.318,0.331,1.758c0.438,0.331,1.207,0.331,1.976,0.331
					c1.422-0.108,2.414-0.439,2.96-0.663c0.769-0.224,1.645-0.663,2.522-1.318c1.538-1.103,2.522-2.745,2.414-4.95
					c0-1.211-0.438-2.421-0.877-3.516c0.1-0.216,0.315-0.44,0.423-0.655c2.414-3.624,4.383-7.587,4.383-7.587
					s0.223,1.211,0.769,3.184c0.331,0.995,0.877,2.097,1.43,3.192c-2.307,1.874-3.729,4.071-4.275,5.497
					c-0.877,2.637-0.223,3.847,1.2,4.179c0.661,0.108,1.422-0.108,2.084-0.439c0.769-0.224,1.753-0.771,2.737-1.426
					c1.538-1.103,3.068-2.745,2.96-4.95c0-0.987-0.331-1.982-0.661-2.968c1.976-0.771,4.49-1.318,7.781-0.879
					c6.905,0.771,8.327,5.166,8.005,6.924c-0.223,1.866-1.753,2.861-2.191,3.076c-0.431,0.332-0.654,0.44-0.538,0.663
					c0.108,0.332,0.331,0.332,0.661,0.224c0.546-0.108,3.614-1.426,3.729-4.834C107.878,72.952,103.818,68.226,96.582,68.226z
					 M43.204,86.36c-2.307,2.529-5.482,3.408-6.913,2.645c-1.538-0.879-0.877-4.619,1.976-7.255c1.753-1.65,3.945-3.076,5.375-4.063
					c0.331-0.224,0.877-0.547,1.423-0.879c0.108-0.108,0.108-0.108,0.108-0.108c0.108-0.116,0.223-0.116,0.331-0.231
					C46.595,80.315,45.611,83.723,43.204,86.36z M59.859,74.934c-0.769,1.982-2.522,6.924-3.506,6.708
					c-0.877-0.224-1.422-4.071-0.215-7.81c0.661-1.866,1.976-4.179,2.737-5.058c1.207-1.426,2.63-1.866,2.96-1.318
					C62.381,68.226,60.412,73.723,59.859,74.934z M76.744,77.131c0.108,2.305-2.084,3.847-3.068,4.395
					c-0.331,0.224-0.554,0.332-0.769,0.224c-0.108-0.116,0.108-0.332,0.108-0.332s1.753-1.866,2.414-2.745
					c0.438-0.447,0.877-1.103,1.315-1.766C76.744,77.015,76.744,77.015,76.744,77.131z M84.418,79.113
					c-0.223-0.224-0.223-0.771,0.654-2.529c0.331-0.663,1.1-1.874,2.414-3.084c0.108,0.44,0.223,0.879,0.223,1.318
					C87.594,77.679,85.625,78.673,84.418,79.113z"/>
			</g>
		</g>
	</g>
</g>
</svg>
