<?xml version="1.0" encoding="utf-8"?>
<!-- Generator: Adobe Illustrator 18.1.1, SVG Export Plug-In . SVG Version: 6.00 Build 0)  -->
<svg version="1.1" xmlns="http://www.w3.org/2000/svg" xmlns:xlink="http://www.w3.org/1999/xlink" x="0px" y="0px"
	 viewBox="0 0 128 128" enable-background="new 0 0 128 128" xml:space="preserve">
<g id="Server">
	<g id="XMLID_1606_">
		<g id="Color_Base_20_">
			<g id="XMLID_868_">
				<circle id="XMLID_885_" fill-rule="evenodd" clip-rule="evenodd" fill="#F14330" cx="64" cy="64" r="64"/>
			</g>
		</g>
		<g id="Border_20_" opacity="0.102">
			<g id="XMLID_972_">
				<path id="XMLID_998_" fill-rule="evenodd" clip-rule="evenodd" d="M64,0C28.654,0,0,28.654,0,64c0,35.346,28.654,64,64,64
					c35.346,0,64-28.654,64-64C128,28.654,99.346,0,64,0z M64,122C31.967,122,6,96.032,6,64C6,31.967,31.967,6,64,6s58,25.968,58,58
					C122,96.032,96.033,122,64,122z"/>
			</g>
		</g>
		<g id="Corner_Hightlight_20_" opacity="0.2588">
			<g id="XMLID_904_">
				<path id="XMLID_905_" fill-rule="evenodd" clip-rule="evenodd" fill="#FFFFFF" d="M63.964,127.999
					c0.012,0,0.024,0.001,0.036,0.001c2.503,0,4.968-0.159,7.397-0.439c10.229-14.739,26.485-24.966,45.207-27.122
					c1.412-2.035,2.713-4.153,3.886-6.35C96.468,95.275,75.638,108.572,63.964,127.999z"/>
			</g>
		</g>
		<g id="Large_Shadow_20_" opacity="0.051">
			<g id="XMLID_894_">
				<path id="XMLID_913_" fill-rule="evenodd" clip-rule="evenodd" d="M117.04,28.175C70.481,30.522,30.1,56.286,7.426,93.924
					C18.168,114.189,39.466,128,64,128c35.346,0,64-28.654,64-64C128,50.727,123.958,38.398,117.04,28.175z"/>
			</g>
		</g>
		<g id="Shadow_20_">
			<g id="XMLID_871_">
				<path id="XMLID_884_" fill-rule="evenodd" clip-rule="evenodd" fill="#5C73CC" d="M71.397,127.561
					c18.722-2.156,34.978-12.384,45.207-27.122C97.882,102.595,81.626,112.823,71.397,127.561z"/>
			</g>
		</g>
		<g id="Highlight_20_" opacity="0.149">
			<g id="XMLID_857_">
				<path id="XMLID_869_" fill-rule="evenodd" clip-rule="evenodd" fill="#FFFFFF" d="M71.397,127.561
					c3.033-0.349,6.003-0.901,8.891-1.659c7.892-9.047,18.541-15.617,30.643-18.405c2.052-2.213,3.947-4.571,5.673-7.058
					C97.882,102.595,81.626,112.823,71.397,127.561z"/>
			</g>
		</g>
		<g id="Symbol_Shadow_20_" opacity="0.051">
			<g id="XMLID_1821_">
				<path id="XMLID_1822_" fill-rule="evenodd" clip-rule="evenodd" d="M41,48h46c4.418,0,8-3.582,8-8c0-4.418-3.582-8-8-8H41
					c-4.418,0-8,3.582-8,8C33,44.418,36.582,48,41,48z M41,37c1.657,0,3,1.343,3,3c0,1.657-1.343,3-3,3s-3-1.343-3-3
					C38,38.343,39.343,37,41,37z M87,52H41c-4.418,0-8,3.582-8,8c0,4.418,3.582,8,8,8h46c4.418,0,8-3.582,8-8
					C95,55.582,91.418,52,87,52z M41,63c-1.657,0-3-1.343-3-3c0-1.657,1.343-3,3-3s3,1.343,3,3C44,61.657,42.657,63,41,63z M87,88
					c4.418,0,8-3.582,8-8c0-4.418-3.582-8-8-8H41c-4.418,0-8,3.582-8,8c0,4.418,3.582,8,8,8h21v6h-4c-1.477,0-2.752,0.809-3.445,2
					H35c-1.105,0-2,0.895-2,2c0,1.105,0.895,2,2,2h19.555c0.693,1.191,1.968,2,3.445,2h12c1.477,0,2.752-0.809,3.445-2H93
					c1.105,0,2-0.895,2-2c0-1.105-0.895-2-2-2H73.445c-0.693-1.191-1.968-2-3.445-2h-4v-6H87z M41,83c-1.657,0-3-1.343-3-3
					c0-1.657,1.343-3,3-3s3,1.343,3,3C44,81.657,42.657,83,41,83z"/>
			</g>
		</g>
		<g id="Symbol_20_">
			<g id="XMLID_1915_">
				<path id="XMLID_1916_" fill-rule="evenodd" clip-rule="evenodd" fill="#FFFFFF" d="M87,50H41c-4.418,0-8,3.582-8,8
					c0,4.418,3.582,8,8,8h46c4.418,0,8-3.582,8-8C95,53.582,91.418,50,87,50z M41,61c-1.657,0-3-1.343-3-3c0-1.657,1.343-3,3-3
					s3,1.343,3,3C44,59.657,42.657,61,41,61z M87,86c4.418,0,8-3.582,8-8c0-4.418-3.582-8-8-8H41c-4.418,0-8,3.582-8,8
					c0,4.418,3.582,8,8,8h21v6h-4c-1.477,0-2.752,0.809-3.445,2H35c-1.105,0-2,0.896-2,2s0.895,2,2,2h19.555
					c0.693,1.191,1.968,2,3.445,2h12c1.477,0,2.752-0.809,3.445-2H93c1.105,0,2-0.895,2-2s-0.895-2-2-2H73.445
					c-0.693-1.191-1.968-2-3.445-2h-4v-6H87z M41,81c-1.657,0-3-1.343-3-3c0-1.657,1.343-3,3-3s3,1.343,3,3
					C44,79.657,42.657,81,41,81z M41,46h46c4.418,0,8-3.582,8-8c0-4.418-3.582-8-8-8H41c-4.418,0-8,3.582-8,8
					C33,42.418,36.582,46,41,46z M41,35c1.657,0,3,1.343,3,3c0,1.657-1.343,3-3,3s-3-1.343-3-3C38,36.343,39.343,35,41,35z"/>
			</g>
		</g>
	</g>
</g>
</svg>
