<?xml version="1.0" encoding="utf-8"?>
<!-- Generator: Adobe Illustrator 18.1.1, SVG Export Plug-In . SVG Version: 6.00 Build 0)  -->
<svg version="1.1" xmlns="http://www.w3.org/2000/svg" xmlns:xlink="http://www.w3.org/1999/xlink" x="0px" y="0px"
	 viewBox="0 0 128 128" enable-background="new 0 0 128 128" xml:space="preserve">
<g id="Swift">
	<g id="XMLID_1608_">
		<g id="Color_Base_25_">
			<g id="XMLID_1728_">
				<circle id="XMLID_1734_" fill-rule="evenodd" clip-rule="evenodd" fill="#FF8D1B" cx="64" cy="64" r="64"/>
			</g>
		</g>
		<g id="Border_25_" opacity="0.102">
			<g id="XMLID_1955_">
				<path id="XMLID_1959_" fill-rule="evenodd" clip-rule="evenodd" d="M64,0C28.654,0,0,28.654,0,64c0,35.346,28.654,64,64,64
					c35.346,0,64-28.654,64-64C128,28.654,99.346,0,64,0z M64,122C31.967,122,6,96.032,6,64C6,31.967,31.967,6,64,6s58,25.968,58,58
					C122,96.032,96.033,122,64,122z"/>
			</g>
		</g>
		<g id="Corner_Hightlight_25_" opacity="0.2588">
			<g id="XMLID_1719_">
				<path id="XMLID_1726_" fill-rule="evenodd" clip-rule="evenodd" fill="#FFFFFF" d="M63.964,127.999
					c0.012,0,0.024,0.001,0.036,0.001c2.503,0,4.968-0.159,7.397-0.439c10.229-14.739,26.485-24.966,45.207-27.122
					c1.412-2.035,2.713-4.153,3.886-6.35C96.468,95.275,75.638,108.572,63.964,127.999z"/>
			</g>
		</g>
		<g id="Large_Shadow_25_" opacity="0.0314">
			<g id="XMLID_1749_">
				<path id="XMLID_1751_" fill-rule="evenodd" clip-rule="evenodd" d="M117.04,28.175C70.481,30.522,30.1,56.286,7.426,93.924
					C18.168,114.189,39.466,128,64,128c35.346,0,64-28.654,64-64C128,50.727,123.958,38.398,117.04,28.175z"/>
			</g>
		</g>
		<g id="Shadow_25_">
			<g id="XMLID_1752_">
				<path id="XMLID_1756_" fill-rule="evenodd" clip-rule="evenodd" fill="#00ACFF" d="M71.397,127.561
					c18.722-2.156,34.978-12.384,45.207-27.122C97.882,102.595,81.626,112.823,71.397,127.561z"/>
			</g>
		</g>
		<g id="Highlight_25_" opacity="0.149">
			<g id="XMLID_1776_">
				<path id="XMLID_1777_" fill-rule="evenodd" clip-rule="evenodd" fill="#FFFFFF" d="M71.397,127.561
					c3.033-0.349,6.003-0.901,8.891-1.659c7.892-9.047,18.541-15.617,30.643-18.405c2.052-2.213,3.947-4.571,5.673-7.058
					C97.882,102.595,81.626,112.823,71.397,127.561z"/>
			</g>
		</g>
		<g id="Symbol_Shadow_25_" opacity="0.051">
			<g id="XMLID_1781_">
				<path id="XMLID_1793_" fill-rule="evenodd" clip-rule="evenodd" d="M91.928,75.185c0.182-0.364,0.182-0.727,0.365-1.091v0.001
					c4.007-15.795-5.646-34.312-22.039-44.117c7.286,9.804,10.2,21.423,7.649,31.771c-0.182,0.908-0.545,1.816-0.911,2.724
					c-3.139-2.162-17.667-11.074-35.153-28.685c-0.546-0.545,9.471,14.162,20.581,25.78c-5.281-3.086-20.034-13.617-29.323-22.15
					c1.092,1.816,2.549,3.631,4.007,5.628c7.831,9.986,17.849,21.967,30.052,31.227c-8.56,5.266-20.581,5.627-32.785,0
					c-3.096-1.272-5.646-3.086-8.378-5.083c5.1,7.988,12.932,15.068,22.403,19.062c11.292,4.902,22.858,4.956,32.239-0.725
					c4.007-1.997,12.021-4.177,16.393,4.175C97.94,96.062,100.125,85.169,91.928,75.185z"/>
			</g>
		</g>
		<g id="Symbol_25_">
			<g id="XMLID_1782_">
				<path id="XMLID_1783_" fill-rule="evenodd" clip-rule="evenodd" fill="#FFFFFF" d="M91.928,73.185
					c0.182-0.364,0.182-0.727,0.365-1.091v0.001c4.007-15.795-5.646-34.313-22.039-44.117c7.286,9.804,10.2,21.423,7.649,31.771
					c-0.182,0.908-0.545,1.816-0.911,2.724c-3.139-2.162-17.667-11.074-35.153-28.685c-0.546-0.545,9.471,14.162,20.581,25.78
					c-5.281-3.086-20.034-13.617-29.323-22.15c1.092,1.816,2.549,3.631,4.007,5.628c7.831,9.986,17.849,21.967,30.052,31.227
					c-8.56,5.266-20.581,5.627-32.785,0c-3.096-1.272-5.646-3.086-8.378-5.083c5.1,7.988,12.932,15.068,22.403,19.062
					c11.292,4.902,22.858,4.956,32.239-0.725c4.007-1.997,12.021-4.177,16.393,4.175C97.94,94.063,100.125,83.17,91.928,73.185z"/>
			</g>
		</g>
	</g>
</g>
</svg>
