<?xml version="1.0" encoding="utf-8"?>
<!-- Generator: Adobe Illustrator 18.1.1, SVG Export Plug-In . SVG Version: 6.00 Build 0)  -->
<svg version="1.1" xmlns="http://www.w3.org/2000/svg" xmlns:xlink="http://www.w3.org/1999/xlink" x="0px" y="0px"
	 viewBox="0 0 128 128" enable-background="new 0 0 128 128" xml:space="preserve">
<g id="Upload">
	<g id="XMLID_1604_">
		<g id="Color_Base_22_">
			<g id="XMLID_777_">
				<circle id="XMLID_778_" fill-rule="evenodd" clip-rule="evenodd" fill="#3ACA90" cx="64" cy="64" r="64"/>
			</g>
		</g>
		<g id="Border_22_" opacity="0.102">
			<g id="XMLID_953_">
				<path id="XMLID_954_" fill-rule="evenodd" clip-rule="evenodd" d="M64,0C28.654,0,0,28.654,0,64s28.654,64,64,64
					c35.346,0,64-28.654,64-64S99.346,0,64,0z M64,122C31.967,122,6,96.032,6,64S31.967,6,64,6s58,25.968,58,58S96.033,122,64,122z"
					/>
			</g>
		</g>
		<g id="Corner_Hightlight_22_" opacity="0.2588">
			<g id="XMLID_782_">
				<path id="XMLID_783_" fill-rule="evenodd" clip-rule="evenodd" fill="#FFFFFF" d="M63.964,127.999
					c0.012,0,0.024,0.001,0.036,0.001c2.503,0,4.968-0.159,7.397-0.439c10.229-14.739,26.485-24.966,45.207-27.122
					c1.412-2.035,2.713-4.152,3.886-6.35C96.468,95.275,75.638,108.572,63.964,127.999z"/>
			</g>
		</g>
		<g id="Large_Shadow_22_" opacity="0.051">
			<g id="XMLID_785_">
				<path id="XMLID_786_" fill-rule="evenodd" clip-rule="evenodd" d="M117.04,28.175C70.481,30.522,30.1,56.286,7.426,93.924
					C18.168,114.189,39.466,128,64,128c35.346,0,64-28.654,64-64C128,50.727,123.958,38.398,117.04,28.175z"/>
			</g>
		</g>
		<g id="Shadow_22_">
			<g id="XMLID_780_">
				<path id="XMLID_784_" fill-rule="evenodd" clip-rule="evenodd" fill="#5C73CC" d="M71.397,127.561
					c18.722-2.156,34.978-12.384,45.207-27.122C97.882,102.595,81.626,112.823,71.397,127.561z"/>
			</g>
		</g>
		<g id="Highlight_22_" opacity="0.149">
			<g id="XMLID_766_">
				<path id="XMLID_779_" fill-rule="evenodd" clip-rule="evenodd" fill="#FFFFFF" d="M71.397,127.561
					c3.033-0.349,6.003-0.901,8.891-1.659c7.892-9.047,18.541-15.617,30.643-18.405c2.052-2.213,3.947-4.571,5.673-7.058
					C97.882,102.595,81.626,112.823,71.397,127.561z"/>
			</g>
		</g>
		<g id="Symbol_Shadow_22_" opacity="0.051">
			<g id="XMLID_1250_">
				<path id="XMLID_1251_" fill-rule="evenodd" clip-rule="evenodd" d="M72,80H56c-1.104,0-2,0.895-2,2s0.895,2,2,2h16
					c1.105,0,2-0.896,2-2S73.105,80,72,80z M64,26c-22.091,0-40,17.909-40,40c0,22.091,17.909,40,40,40s40-17.909,40-40
					C104,43.909,86.091,26,64,26z M64,102c-19.882,0-36-16.118-36-36c0-19.882,16.118-36,36-36c19.882,0,36,16.118,36,36
					C100,85.882,83.882,102,64,102z M64.707,44.293L64.707,44.293C64.526,44.112,64.276,44,64,44s-0.526,0.112-0.707,0.293l0,0
					l-16,16C47.112,60.474,47,60.724,47,61c0,0.552,0.448,1,1,1h6v12c0,1.105,0.895,2,2,2h16c1.105,0,2-0.895,2-2V62h6
					c0.552,0,1-0.448,1-1c0-0.276-0.112-0.526-0.293-0.707L64.707,44.293z"/>
			</g>
		</g>
		<g id="Symbol_22_">
			<g id="XMLID_1699_">
				<path id="XMLID_1703_" fill-rule="evenodd" clip-rule="evenodd" fill="#FFFFFF" d="M64.707,42.293
					C64.526,42.112,64.276,42,64,42c-0.276,0-0.526,0.112-0.707,0.293l0,0l-16,16C47.112,58.474,47,58.724,47,59
					c0,0.552,0.448,1,1,1h6v12c0,1.105,0.895,2,2,2h16c1.105,0,2-0.895,2-2V60h6c0.552,0,1-0.448,1-1
					c0-0.276-0.112-0.526-0.293-0.707L64.707,42.293z M72,78H56c-1.104,0-2,0.895-2,2c0,1.105,0.895,2,2,2h16c1.105,0,2-0.895,2-2
					C74,78.895,73.105,78,72,78z M64,24c-22.091,0-40,17.909-40,40c0,22.091,17.909,40,40,40s40-17.909,40-40
					C104,41.909,86.091,24,64,24z M64,100c-19.882,0-36-16.118-36-36s16.118-36,36-36c19.882,0,36,16.118,36,36S83.882,100,64,100z"
					/>
			</g>
		</g>
	</g>
</g>
</svg>
