<?xml version="1.0" encoding="utf-8"?>
<!-- Generator: Adobe Illustrator 18.1.1, SVG Export Plug-In . SVG Version: 6.00 Build 0)  -->
<svg version="1.1" xmlns="http://www.w3.org/2000/svg" xmlns:xlink="http://www.w3.org/1999/xlink" x="0px" y="0px"
	 viewBox="0 0 128 128" enable-background="new 0 0 128 128" xml:space="preserve">
<g id="WordPress">
	<g id="XMLID_1173_">
		<g id="Color_Base_11_">
			<g id="XMLID_1322_">
				<circle id="XMLID_1323_" fill-rule="evenodd" clip-rule="evenodd" fill="#3ACA90" cx="64" cy="64" r="64"/>
			</g>
		</g>
		<g id="Border_11_" opacity="0.102">
			<g id="XMLID_1375_">
				<path id="XMLID_1376_" fill-rule="evenodd" clip-rule="evenodd" d="M64,0C28.654,0,0,28.654,0,64s28.654,64,64,64
					s64-28.654,64-64S99.346,0,64,0z M64,122C31.967,122,6,96.032,6,64C6,31.967,31.967,6,64,6s58,25.967,58,58
					C122,96.032,96.033,122,64,122z"/>
			</g>
		</g>
		<g id="Corner_Hightlight_11_" opacity="0.2588">
			<g id="XMLID_1311_">
				<path id="XMLID_1315_" fill-rule="evenodd" clip-rule="evenodd" fill="#FFFFFF" d="M63.964,127.999
					c0.012,0,0.024,0.001,0.036,0.001c2.503,0,4.968-0.159,7.397-0.439c10.229-14.739,26.485-24.967,45.207-27.122
					c1.412-2.035,2.713-4.153,3.886-6.35C96.468,95.275,75.638,108.572,63.964,127.999z"/>
			</g>
		</g>
		<g id="Large_Shadow_11_" opacity="0.051">
			<g id="XMLID_1302_">
				<path id="XMLID_1303_" fill-rule="evenodd" clip-rule="evenodd" d="M117.04,28.175C70.481,30.522,30.1,56.286,7.426,93.924
					C18.168,114.189,39.466,128,64,128c35.346,0,64-28.654,64-64C128,50.727,123.958,38.398,117.04,28.175z"/>
			</g>
		</g>
		<g id="Shadow_11_">
			<g id="XMLID_1305_">
				<path id="XMLID_1307_" fill-rule="evenodd" clip-rule="evenodd" fill="#F14330" d="M71.397,127.561
					c18.722-2.156,34.978-12.384,45.207-27.122C97.882,102.595,81.626,112.823,71.397,127.561z"/>
			</g>
		</g>
		<g id="Highlight_11_" opacity="0.149">
			<g id="XMLID_1316_">
				<path id="XMLID_1317_" fill-rule="evenodd" clip-rule="evenodd" fill="#FFFFFF" d="M71.397,127.561
					c3.033-0.349,6.003-0.901,8.891-1.659c7.892-9.047,18.541-15.616,30.643-18.405c2.052-2.213,3.947-4.572,5.673-7.058
					C97.882,102.595,81.626,112.823,71.397,127.561z"/>
			</g>
		</g>
		<g id="Symbol_Shadow_11_" opacity="0.051">
			<g id="XMLID_1536_">
				<path id="XMLID_1545_" fill-rule="evenodd" clip-rule="evenodd" d="M64,26c-22.056,0-40,17.943-40,39.999
					C24,88.055,41.944,106,64,106c22.055,0,40-17.945,40-40.001C104,43.943,86.055,26,64,26z M28.037,65.999
					c0-5.214,1.119-10.164,3.114-14.636l17.155,47.002C36.308,92.536,28.037,80.233,28.037,65.999z M64,101.964
					c-3.53,0-6.937-0.518-10.16-1.465l10.791-31.354L75.685,99.43c0.073,0.178,0.162,0.341,0.258,0.496
					C72.204,101.241,68.188,101.964,64,101.964z M68.956,49.137c2.165-0.114,4.116-0.342,4.116-0.342
					c1.938-0.229,1.709-3.077-0.229-2.964c0,0-5.825,0.457-9.585,0.457c-3.534,0-9.472-0.457-9.472-0.457
					c-1.939-0.114-2.167,2.849-0.228,2.964c0,0,1.834,0.228,3.772,0.342l5.603,15.352l-7.871,23.603L41.965,49.137
					c2.167-0.114,4.116-0.342,4.116-0.342c1.937-0.229,1.708-3.077-0.23-2.964c0,0-5.824,0.457-9.585,0.457
					c-0.675,0-1.47-0.017-2.315-0.044C40.382,36.483,51.435,30.036,64,30.036c9.362,0,17.887,3.58,24.285,9.442
					c-0.155-0.01-0.306-0.029-0.466-0.029c-3.533,0-6.039,3.078-6.039,6.383c0,2.964,1.71,5.471,3.533,8.435
					c1.368,2.395,2.965,5.472,2.965,9.918c0,3.078-1.184,6.649-2.736,11.626l-3.588,11.985L68.956,49.137z M82.08,97.083
					l10.984-31.759c2.052-5.131,2.735-9.233,2.735-12.881c0-1.324-0.087-2.553-0.242-3.698c2.807,5.122,4.405,11,4.405,17.253
					C99.962,79.266,92.772,90.85,82.08,97.083z"/>
			</g>
		</g>
		<g id="Symbol_11_">
			<g id="XMLID_1551_">
				<path id="XMLID_1556_" fill-rule="evenodd" clip-rule="evenodd" fill="#FFFFFF" d="M64,24c-22.056,0-40,17.943-40,39.999
					C24,86.055,41.944,104,64,104c22.055,0,40-17.945,40-40.001C104,41.943,86.055,24,64,24z M28.037,63.999
					c0-5.214,1.119-10.164,3.114-14.636l17.155,47.002C36.308,90.536,28.037,78.233,28.037,63.999z M64,99.964
					c-3.53,0-6.937-0.518-10.16-1.465l10.791-31.354L75.685,97.43c0.073,0.178,0.162,0.341,0.258,0.496
					C72.204,99.241,68.188,99.964,64,99.964z M68.956,47.137c2.165-0.114,4.116-0.342,4.116-0.342
					c1.938-0.229,1.709-3.077-0.229-2.964c0,0-5.825,0.457-9.585,0.457c-3.534,0-9.472-0.457-9.472-0.457
					c-1.939-0.113-2.167,2.849-0.228,2.964c0,0,1.834,0.228,3.772,0.342l5.603,15.352l-7.871,23.603L41.965,47.137
					c2.167-0.114,4.116-0.342,4.116-0.342c1.937-0.229,1.708-3.077-0.23-2.964c0,0-5.824,0.457-9.585,0.457
					c-0.675,0-1.47-0.017-2.315-0.044C40.382,34.483,51.435,28.036,64,28.036c9.362,0,17.887,3.58,24.285,9.442
					c-0.155-0.01-0.306-0.029-0.466-0.029c-3.533,0-6.039,3.077-6.039,6.383c0,2.964,1.71,5.471,3.533,8.435
					c1.368,2.395,2.965,5.472,2.965,9.918c0,3.078-1.184,6.649-2.736,11.626l-3.588,11.985L68.956,47.137z M82.08,95.083
					l10.984-31.759c2.052-5.131,2.735-9.233,2.735-12.881c0-1.324-0.087-2.553-0.242-3.698c2.807,5.122,4.405,11,4.405,17.253
					C99.962,77.266,92.772,88.85,82.08,95.083z"/>
			</g>
		</g>
	</g>
</g>
</svg>
